<?xml version="1.0" encoding="UTF-8" standalone="no"?>
<!-- Created with Inkscape (http://www.inkscape.org/) -->

<svg
   xmlns:dc="http://purl.org/dc/elements/1.1/"
   xmlns:cc="http://creativecommons.org/ns#"
   xmlns:rdf="http://www.w3.org/1999/02/22-rdf-syntax-ns#"
   xmlns:svg="http://www.w3.org/2000/svg"
   xmlns="http://www.w3.org/2000/svg"
   xmlns:sodipodi="http://sodipodi.sourceforge.net/DTD/sodipodi-0.dtd"
   xmlns:inkscape="http://www.inkscape.org/namespaces/inkscape"
   width="48"
   height="48"
   id="svg4230"
   version="1.1"
   inkscape:version="0.48.4 r9939"
   sodipodi:docname="marble.svg">
  <defs
     id="defs4232" />
  <sodipodi:namedview
     id="base"
     pagecolor="#ffffff"
     bordercolor="#666666"
     borderopacity="1.0"
     inkscape:pageopacity="0.0"
     inkscape:pageshadow="2"
     inkscape:zoom="9.5454598"
     inkscape:cx="42.141594"
     inkscape:cy="23.207181"
     inkscape:document-units="px"
     inkscape:current-layer="layer1"
     showgrid="false"
     inkscape:showpageshadow="false"
     borderlayer="true"
     inkscape:window-width="1366"
     inkscape:window-height="744"
     inkscape:window-x="0"
     inkscape:window-y="24"
     inkscape:window-maximized="1"
     showguides="true">
    <sodipodi:guide
       position="0,48.000017"
       orientation="48,0"
       id="guide4065" />
    <sodipodi:guide
       position="0,1.7382813e-05"
       orientation="0,48"
       id="guide4067" />
    <sodipodi:guide
       position="48,1.7382813e-05"
       orientation="-48,0"
       id="guide4069" />
    <sodipodi:guide
       position="48,48.000017"
       orientation="0,-48"
       id="guide4071" />
    <sodipodi:guide
       position="4,44.000017"
       orientation="40,0"
       id="guide4073" />
    <sodipodi:guide
       position="4,4.0000174"
       orientation="0,40"
       id="guide4075" />
    <sodipodi:guide
       position="44,4.0000174"
       orientation="-40,0"
       id="guide4077" />
    <sodipodi:guide
       position="44,44.000017"
       orientation="0,-40"
       id="guide4079" />
    <sodipodi:guide
       position="15,33.000017"
       orientation="18,0"
       id="guide4081" />
    <sodipodi:guide
       position="15,15.000017"
       orientation="0,18"
       id="guide4083" />
    <sodipodi:guide
       position="33,15.000017"
       orientation="-18,0"
       id="guide4085" />
    <sodipodi:guide
       position="33,33.000017"
       orientation="0,-18"
       id="guide4087" />
  </sodipodi:namedview>
  <metadata
     id="metadata4235">
    <rdf:RDF>
      <cc:Work
         rdf:about="">
        <dc:format>image/svg+xml</dc:format>
        <dc:type
           rdf:resource="http://purl.org/dc/dcmitype/StillImage" />
        <dc:title />
      </cc:Work>
    </rdf:RDF>
  </metadata>
  <g
     inkscape:label="Capa 1"
     inkscape:groupmode="layer"
     id="layer1"
     transform="translate(0,-1004.3622)">
    <rect
       style="fill:#74c8f4;fill-opacity:1;stroke:none"
       id="rect4096"
       width="43.876186"
       height="43.876186"
       x="1.904763"
       y="1006.6859"
       ry="21.938093" />
    <path
       inkscape:connector-curvature="0"
       style="fill:#f4f4ef;fill-opacity:1;fill-rule:nonzero;stroke:none"
       d="m 19.281704,1007.1701 c -0.01218,-6e-4 -0.02614,0 -0.03857,0 -0.886504,0.1879 -1.745203,0.4441 -2.58801,0.7349 -0.02118,0.059 -0.04993,0.1227 -0.03857,0.1627 0.05901,0.2099 0.446971,0.058 0.550594,0.2572 -0.02379,0.2435 -0.286413,0.3646 -0.492749,0.4691 -0.192398,0.098 -0.439178,0.3431 -0.647002,0.2185 -0.08128,-0.2115 0.235396,-0.213 0.158536,-0.394 -0.05705,-0.1355 -0.30436,-0.047 -0.413482,-0.1758 -0.04867,-0.058 -0.05892,-0.126 -0.05784,-0.1971 -7.4624587,2.9648 -12.8924246,9.8824 -13.7027356,18.2061 0.089206,0.027 0.1997212,0.041 0.2870806,0.079 0.1403325,0.062 0.2506482,0.2111 0.4113393,0.2934 0.1988743,0.1022 0.465987,0.1622 0.7069893,0.2742 0.2321253,0.1075 0.5434171,0.2562 0.7284134,0.2571 0.1859813,0 0.3838731,-0.1916 0.5891576,-0.1971 0.4815818,-0.013 0.6908921,0.6126 1.0797656,0.8056 0.097635,0.049 0.2275328,0.05 0.3534948,0.079 0.1021552,0.021 0.1786574,0.062 0.2763686,0.096 0.2078184,0.071 0.4616077,0.063 0.6277208,0.1372 0.2504431,0.111 0.4338542,0.581 0.6491448,0.707 0.010421,0.1268 -0.022905,0.2994 0.019281,0.3941 0.1016719,0.1379 0.2437454,0.1054 0.4113389,0.1949 0.2003534,0.1087 0.2620492,0.3883 0.452045,0.4735 0.064905,0.03 0.228444,0.027 0.3320709,0.058 0.2603762,0.079 0.3466961,0.3786 0.5698771,0.3127 0.1463213,-0.043 0.1352187,-0.1923 0.1585368,-0.3321 0.096708,-0.1052 0.2027381,-0.2733 0.3534931,-0.2764 0.244031,0 0.264735,0.2557 0.353496,0.4929 0.05011,0.1338 0.182214,0.2506 0.216382,0.392 0.05999,0.2441 0.03082,0.9724 -0.01928,1.1182 -0.06147,0.1791 -0.302692,0.2558 -0.452045,0.4543 -0.06988,0.092 -0.102769,0.228 -0.156395,0.2934 -0.09564,0.117 -0.243009,0.1468 -0.3149305,0.2551 -0.040633,0.06 -0.07865,0.1918 -0.1178321,0.2742 -0.1185638,0.2499 -0.2769371,0.4262 -0.1778192,0.7263 0.040705,0.1235 0.2351727,0.2101 0.2356632,0.3555 4.241e-4,0.1712 -0.3638089,0.3203 -0.3920579,0.5078 -0.021339,0.1389 0.1122961,0.3905 0.1563947,0.572 0.033265,0.1374 0.2919017,0.2237 0.3727766,0.315 0.1378652,0.1546 0.2489592,0.3732 0.3749192,0.5677 0.248962,0.3824 0.443084,0.8464 0.685565,1.2169 0.127515,0.1938 0.308889,0.3707 0.3942,0.5719 0.0436,0.1022 0.03863,0.2215 0.07927,0.3129 0.140399,0.3169 0.759866,0.6483 1.079767,0.8056 0.14977,0.074 0.31467,0.1012 0.452044,0.1778 0.208247,0.116 0.621163,0.4258 0.726269,0.6084 0.09425,0.1641 0.14938,0.564 0.194959,0.8248 0.06048,0.3447 0.0038,0.6078 0.01928,0.9812 0.0086,0.2019 0.07682,0.406 0.07926,0.6085 0.0012,0.072 -0.03613,0.1246 -0.03857,0.1971 -0.0087,0.245 0.05941,0.5204 0.03857,0.7669 -0.01145,0.1345 -0.04848,0.2393 -0.03857,0.3513 0.01042,0.1221 0.06763,0.2298 0.07713,0.3365 0.0099,0.115 -0.02868,0.262 -0.01928,0.3513 0.02679,0.248 0.208478,0.4417 0.257087,0.6685 0.03865,0.1806 0.06177,0.5507 0.03857,0.767 -0.01195,0.1134 -0.08121,0.2289 -0.09855,0.3535 -0.013,0.097 0.0139,0.2013 0,0.2934 -0.01987,0.1374 -0.10641,0.247 -0.09855,0.3749 0.0174,0.2649 0.31186,0.4806 0.353495,0.7455 0.01439,0.089 -0.02329,0.1885 -0.01928,0.2743 0.0077,0.1636 0.0831,0.3003 0.117832,0.452 0.01763,0.077 0.02361,0.1622 0.03214,0.2463 0.09377,0.045 0.186146,0.092 0.280653,0.1351 -0.02099,-0.078 -0.03857,-0.1551 0.02142,-0.2057 0.133148,0.041 0.181045,0.1662 0.205669,0.315 0.768092,0.341 1.550929,0.6514 2.363058,0.904 0.116038,-0.081 0.268758,-0.1416 0.299935,-0.2955 0.02378,-0.1172 -0.03527,-0.1666 -0.0407,-0.3536 0.04414,-0.192 0.253353,-0.2181 0.293507,-0.4134 -0.08186,-0.14 -0.268562,-0.044 -0.392058,-0.1158 -0.119972,-0.07 -0.173722,-0.2266 -0.156394,-0.3749 0.204863,-0.087 0.59881,0.21 0.745552,-0.077 0.073,-0.1354 -0.0819,-0.4716 0.01928,-0.6084 0.06899,-0.092 0.443823,-0.095 0.589157,-0.1201 0.208313,-0.035 0.4523,-0.08 0.569877,-0.1563 0.128427,-0.085 0.317911,-0.3279 0.295649,-0.5699 -0.01097,-0.1156 -0.0895,-0.1528 -0.177819,-0.2549 -0.07389,-0.086 -0.102768,-0.1928 -0.156394,-0.2742 -0.09171,-0.138 -0.233509,-0.1182 -0.274226,-0.3149 0.281719,-0.055 0.710648,0.2323 1.118329,0.1177 0.19338,-0.055 0.460845,-0.4676 0.550595,-0.6491 0.02878,-0.057 0.02604,-0.1443 0.05784,-0.2142 0.03426,-0.076 0.106499,-0.1361 0.117832,-0.1757 0.03032,-0.1075 0.01432,-0.1897 0.03857,-0.257 0.07144,-0.1994 0.256847,-0.2641 0.37492,-0.4114 0.08926,-0.1111 0.131562,-0.2446 0.216382,-0.3557 0.09228,-0.121 0.174653,-0.2255 0.235663,-0.332 0.05803,-0.3587 -0.143817,-0.6093 -0.05999,-0.9234 0.09425,-0.3526 0.5817,-0.5693 0.923371,-0.7284 0.117581,-0.055 0.238476,-0.1424 0.334213,-0.1757 0.236495,-0.084 0.529278,-0.038 0.745553,-0.1177 0.368022,-0.1345 0.407684,-0.5283 0.589158,-0.8635 0.08632,-0.1587 0.199471,-0.3197 0.216381,-0.4328 0.01537,-0.1022 -0.03875,-0.1928 -0.02142,-0.3127 0.01733,-0.1182 0.128419,-0.2254 0.16068,-0.3557 0.04258,-0.1701 0.05784,-0.419 0.05784,-0.6084 0,-0.1557 -0.07231,-0.2904 -0.07927,-0.4307 -0.02526,-0.5093 0.184331,-0.5689 0.372776,-0.8462 0.09375,-0.1378 0.129023,-0.2933 0.194957,-0.392 0.316454,-0.4721 0.866693,-0.7005 0.826964,-1.4141 -0.01284,-0.2362 -0.160133,-0.7687 -0.334213,-0.844 -0.09918,-0.043 -0.327543,0 -0.471326,-0.058 -0.464252,-0.1731 -0.73586,-0.7495 -1.216879,-0.7863 -0.102714,-0.011 -0.199326,0.041 -0.314931,0.039 -0.190421,0 -0.47693,-0.1343 -0.687708,-0.1585 -0.133922,-0.015 -0.31168,0.04 -0.392058,0 -0.123003,-0.059 -0.135977,-0.2841 -0.235664,-0.3514 -0.07981,-0.054 -0.233523,-0.072 -0.353495,-0.1177 -0.193451,-0.075 -0.346695,-0.1625 -0.569876,-0.178 -0.06891,0 -0.155843,0.032 -0.235663,0.019 -0.123493,-0.019 -0.220159,-0.1663 -0.334212,-0.2357 -0.142376,-0.087 -0.273104,-0.1309 -0.332072,-0.2549 0.128921,-0.4231 -0.230281,-0.5397 -0.317073,-0.7841 -0.04061,-0.1146 -0.02213,-0.2536 -0.05784,-0.3557 -0.0511,-0.1463 -0.194776,-0.2292 -0.353496,-0.3513 -0.284187,-0.2187 -0.536447,-0.4233 -0.942651,-0.4736 -0.178513,-0.022 -0.354166,0.055 -0.569876,0.041 -0.228606,-0.014 -0.51452,-0.218 -0.685567,-0.4135 -0.166187,-0.1909 -0.249359,-0.3587 -0.3942,-0.45 -0.137374,-0.088 -0.319781,-0.089 -0.413481,-0.1778 -0.04159,-0.04 -0.03464,-0.1053 -0.07927,-0.197 -0.06891,-0.1428 -0.182273,-0.221 -0.09641,-0.3922 -0.156748,-0.08 -0.163024,0.1477 -0.334213,0.1179 -0.15273,-0.2167 -0.281047,-0.3206 -0.627721,-0.257 -0.158223,0.03 -0.24777,0.2328 -0.432763,0.2378 -0.151747,0 -0.270973,-0.1683 -0.471325,-0.1971 -0.151251,-0.02 -0.322979,0.041 -0.430623,0.019 -0.167597,-0.033 -0.221693,-0.1735 -0.374919,-0.2742 -0.112081,-0.074 -0.329075,-0.1991 -0.392056,-0.1971 -0.197326,0.011 -0.336159,0.4184 -0.60844,0.2742 -0.132866,-0.1676 0.214582,-0.2546 0.05785,-0.4113 -0.119058,-0.1191 -0.217612,0.053 -0.312791,0.1178 -0.108636,0.075 -0.213749,0.1525 -0.334211,0.1971 -0.269816,0.1012 -0.438297,0.047 -0.649146,0.1564 -0.195351,0.1012 -0.202184,0.2704 -0.312788,0.4713 -0.09073,0.1646 -0.296872,0.4036 -0.432764,0.4135 -0.164637,0.012 -0.324189,-0.2312 -0.473469,-0.2956 -0.44981,-0.1949 -0.6655488,0.1706 -1.0390602,0.1755 -0.3466747,0 -0.8422226,-0.5567 -0.8248206,-0.8826 0.010966,-0.1989 0.1133007,-0.4996 0.1371124,-0.7455 0.019295,-0.1955 0.1544909,-0.3142 0.1563948,-0.4928 0.00276,-0.2385 -0.3165514,-0.4216 -0.4713264,-0.4498 -0.3669628,-0.068 -0.8734305,0.1479 -1.2940046,-0.019 -0.08037,-0.1328 0.092036,-0.2262 0.1371131,-0.3556 0.025283,-0.073 0.00767,-0.172 0.038563,-0.2528 0.046629,-0.1244 0.17705,-0.2233 0.2356631,-0.3556 0.044107,-0.1012 0.051797,-0.2474 0.096408,-0.3729 0.051083,-0.1428 0.1476173,-0.234 0.1585369,-0.3341 0.01438,-0.133 -0.035628,-0.2856 -0.1392554,-0.3728 -0.326315,0.016 -0.5407833,0.034 -0.7262709,0.1178 -0.4250122,0.1934 -0.3402452,0.7682 -0.764834,0.9041 -0.146814,0.047 -0.3482111,0.048 -0.5098893,0.077 -0.1393453,0.025 -0.3082603,0.1022 -0.4520447,0.099 -0.1701387,0 -0.4687132,-0.1657 -0.5698763,-0.2743 -0.090242,-0.097 -0.3094154,-0.5825 -0.3342131,-0.6685 -0.1671738,-0.5786 0.015448,-1.1102 0.2356632,-1.5125 0.04664,-0.086 0.1238067,-0.163 0.1585369,-0.2527 0.052552,-0.1364 0.016633,-0.3455 0.057844,-0.4928 0.075302,-0.2737 0.4342361,-0.4379 0.6877078,-0.5698 0.2871444,-0.1493 0.5290387,-0.389 0.863384,-0.4114 0.1666088,-0.011 0.409749,0.046 0.5698762,0.079 0.1478693,0.031 0.2662638,0.1277 0.3942001,0.1371 0.3630163,0.028 0.4493882,-0.2552 0.7455524,-0.4135 0.305954,0.043 0.5099619,-0.052 0.7862582,-0.019 0.1884466,0.021 0.3245135,0.2243 0.4713254,0.2356 0.1234948,0.011 0.2318737,-0.1173 0.3513532,-0.099 0.1160263,0.018 0.3174774,0.2717 0.3363554,0.4136 0.0233,0.1765 -0.1298743,0.3352 -0.079274,0.5291 0.184997,0.1884 0.5219404,0.2256 0.7862584,0.3342 0.172105,-0.1418 0.02329,-0.4031 0,-0.6084 -0.0099,-0.091 0.0093,-0.1717 0,-0.2549 -0.01537,-0.1415 -0.07877,-0.2732 -0.07926,-0.3943 -0.0027,-0.5589 0.449896,-0.8204 0.82482,-1.0412 0.162171,-0.095 0.289796,-0.2637 0.430621,-0.3341 0.198874,-0.1002 0.347395,-0.1217 0.512032,-0.2144 0.297571,-0.1669 0.551496,-0.3032 0.784116,-0.4926 0.107572,-0.2534 0.0066,-0.5937 0.01928,-0.8441 0.107639,-0.065 0.203019,0.03 0.317074,0.019 0.179572,-0.039 0.191782,-0.2909 0.293507,-0.392 0.05844,-0.058 0.222244,-0.1012 0.295651,-0.1585 0.179078,-0.1403 0.235804,-0.3487 0.392058,-0.4093 0.05598,-0.021 0.185956,-0.016 0.274226,-0.041 0.117016,-0.032 0.281894,-0.1706 0.471325,-0.2355 0.123002,-0.042 0.404916,-0.05 0.452045,-0.099 0.05794,-0.059 4.73e-4,-0.224 0.01928,-0.3128 0.09523,-0.4433 0.764244,-0.5384 1.159034,-0.6877 0.276718,-0.1053 0.561476,-0.2946 0.865527,-0.2356 -0.0595,0.2108 -0.343695,0.1361 -0.295651,0.392 0.06703,0.3552 0.540816,-0.1041 0.666284,-0.1564 0.239595,-0.1011 0.649667,-0.1622 0.964076,-0.2763 0.275733,-0.1001 0.769773,-0.2524 0.50989,-0.5678 -0.216766,-0.012 -0.320949,0.2513 -0.50989,0.332 -0.130468,0.019 -0.105358,-0.1075 -0.216381,-0.1177 -0.105182,-0.011 -0.165595,0.099 -0.274225,0.079 -0.108068,-0.018 -0.259463,-0.1864 -0.276369,-0.3128 -0.04309,-0.3279 0.277659,-0.4625 0.413481,-0.7069 -0.08975,-0.2967 -0.499719,-0.063 -0.747695,-0.1801 0.02378,-0.1765 0.207141,-0.2982 0.413482,-0.332 0.169074,-0.028 0.548475,-0.011 0.649144,0.077 0.05901,0.049 0.0076,0.1726 0.09855,0.2549 0.100203,0.091 0.221446,0.081 0.351352,0.06 0.04717,-0.2236 -0.291647,-0.1666 -0.254943,-0.3149 0.265305,-0.1735 0.694944,-0.029 1.019778,-0.077 0.186969,-0.028 0.3849,-0.1619 0.550595,-0.255 0.15766,-0.09 0.364139,-0.2475 0.531312,-0.1012 0.04565,0.1602 -0.146406,0.2158 -0.235663,0.2956 -0.30053,0.2673 -0.612641,0.5743 -0.846244,0.8848 0.143363,0.1398 0.406664,0.067 0.649144,0.096 0.09474,0.011 0.214684,0.042 0.314932,0.06 0.117012,0.02 0.240352,0.015 0.332071,0.038 0.165201,0.041 0.211693,0.2185 0.374919,0.2185 0.26876,-4e-4 0.27007,-0.2919 0.117832,-0.4734 0.04815,-0.1855 0.123285,-0.2815 0.05784,-0.4113 -0.121031,-0.2421 -0.566327,0 -0.589159,-0.315 -0.01439,-0.196 0.164728,-0.1875 0.235663,-0.3342 -0.03229,-0.3784 0.313002,-0.4064 0.276369,-0.7456 -0.01537,-0.1419 -0.13598,-0.1412 -0.235663,-0.2742 -0.05158,-0.068 -0.07735,-0.2024 -0.139256,-0.2549 -0.205353,-0.1736 -0.621711,-0.1401 -0.647002,-0.4713 -0.0093,-0.1955 0.04655,-0.3598 0.01928,-0.5721 -0.02526,-0.1979 -0.161122,-0.7464 -0.334212,-0.7842 -0.219234,-0.047 -0.44415,0.3277 -0.70699,0.4521 -0.142868,0.068 -0.347248,0.1447 -0.490608,0.1179 -0.09321,-0.017 -0.279136,-0.1564 -0.293508,-0.3364 -0.01588,-0.2064 0.13749,-0.2105 0.175677,-0.4307 -0.03277,-0.1299 -0.166067,-0.1001 -0.293508,-0.1971 -0.144345,-0.1097 -0.260074,-0.3438 -0.452044,-0.3705 -0.09567,-0.013 -0.21969,0.071 -0.314931,0.077 -0.292145,0.019 -0.544788,-0.1873 -0.766977,-0.1372 -0.265311,0.06 -0.253454,0.4718 -0.50989,0.5505 0.03474,0.1921 -0.226206,0.3176 -0.254945,0.4693 -0.01938,0.1022 0.03261,0.2243 0.03857,0.317 0.05902,0.9394 -0.713175,1.3793 -1.628218,1.354 -0.1795,0.1716 -0.13795,0.4908 -0.235663,0.7263 -0.08232,0.1979 -0.371985,0.4089 -0.569876,0.3921 -0.146317,-0.012 -0.314439,-0.2151 -0.314932,-0.3514 -4.97e-4,-0.1681 0.243878,-0.2621 0.09855,-0.4542 0.02084,-0.1303 0.309945,-0.2036 0.274226,-0.4114 -0.03668,-0.2161 -0.338621,-0.1052 -0.608439,-0.1392 -0.196402,-0.025 -0.455781,-0.1373 -0.629862,-0.2335 -0.230081,-0.1274 -0.426238,-0.3762 -0.726272,-0.4134 -0.170623,-0.02 -0.330958,0.057 -0.411339,-0.039 -0.0882,-0.1053 0.03573,-0.2618 0.0407,-0.3342 -0.0056,-0.1195 -0.2278,-0.1573 -0.237805,-0.2743 -0.0077,-0.083 0.211817,-0.341 0.29565,-0.4134 0.155198,-0.1349 0.437759,-0.2781 0.687707,-0.4136 0.244525,-0.1323 0.527774,-0.2718 0.764835,-0.3513 0.101235,-0.034 0.217711,-0.022 0.314931,-0.058 0.248472,-0.092 0.411919,-0.2674 0.647003,-0.3364 0.122512,-0.036 0.257318,-0.028 0.3942,-0.058 0.325823,-0.074 0.566889,-0.3064 0.844102,-0.3536 -0.06147,0.2262 -0.313745,0.2615 -0.372777,0.4907 0.237551,0.4325 0.644679,-0.1012 0.923371,-0.099 0.252977,0 0.506577,0.3585 0.666284,0.019 -0.05799,-0.183 -0.228897,-0.287 -0.392058,-0.392 -0.150751,-0.098 -0.388623,-0.184 -0.372774,-0.3943 0.181053,-0.08 0.249093,0.1384 0.411339,0.1393 0.08828,4e-4 0.20442,-0.1085 0.295649,-0.1393 0.204367,-0.07 0.545737,-0.091 0.70699,-0.2335 0.09715,-0.086 0.081,-0.2236 0.156393,-0.3343 0.06449,-0.094 0.225034,-0.1212 0.293509,-0.2163 0.08335,-0.1162 0.01335,-0.2132 0.119974,-0.2741 0.229164,-0.1022 0.513084,0.024 0.766976,0 0.120043,-0.011 0.199718,-0.1076 0.312789,-0.099 0.219724,0.017 0.336824,0.3711 0.490608,0.4714 0.112581,0.073 0.314841,0.07 0.334213,0.2142 0.03817,0.2867 -0.375896,0.3093 -0.629863,0.4542 -0.126451,0.072 -0.177297,0.2344 -0.332072,0.2935 -0.415573,0.1587 -1.047525,-0.1758 -1.180458,0.2742 0.191969,0.2826 0.543704,-0.018 0.786258,-0.019 0.173091,0 0.384516,0.1601 0.490609,0.2742 0.09179,0.098 0.124072,0.2911 0.235663,0.3556 0.07438,0.043 0.20541,0.031 0.29565,0.058 0.288133,0.088 0.528709,0.2427 0.844102,0.1757 0.108144,-0.1899 -0.221869,-0.2428 -0.09641,-0.3921 0.211338,0.017 0.347219,0.1119 0.509888,0.1779 0.227192,-0.1662 0.380736,-0.1853 0.372776,-0.4521 -0.0061,-0.2232 -0.297456,-0.2348 -0.293507,-0.4926 0.0026,-0.1455 0.104194,-0.21 0.214238,-0.2145 0.252904,-0.011 0.326472,0.367 0.512032,0.3943 0.112017,0.016 0.442885,-0.1472 0.50989,-0.1798 0.09465,-0.047 0.38269,-0.2158 0.392058,-0.313 0.01446,-0.1447 -0.303254,-0.3331 -0.452045,-0.3941 -0.211762,-0.087 -0.422998,-0.073 -0.507747,-0.255 -0.04514,-0.1002 0.0248,-0.2022 -0.05999,-0.272 -0.0099,-0.1064 0.129772,-0.1758 0.09855,-0.2785 -0.03178,-0.1042 -0.146864,-0.087 -0.29565,-0.1544 -0.104622,-0.048 -0.202344,-0.1559 -0.293507,-0.1778 -0.123068,-0.03 -0.242588,0 -0.336356,-0.039 -0.345191,-0.1281 -0.279139,-0.4159 -0.507747,-0.5508 -0.296587,0.037 -0.553724,-0.1052 -0.766977,0.019 -0.06634,-0.036 -0.142872,-0.051 -0.222807,-0.056 z m -0.02998,1.6113 c -0.19018,-0.026 -0.447268,0.1366 -0.415623,0.2719 0.05305,0.2258 0.611015,0 0.569876,-0.1777 -0.03557,-0.057 -0.09084,-0.086 -0.154253,-0.094 z m 1.066911,0.4862 c 0.02304,-5e-4 0.04885,0.011 0.0707,0.021 0.0139,0.099 -0.04263,0.1276 -0.139255,0.1156 -0.05805,-0.073 -0.001,-0.1357 0.06855,-0.1371 z m -4.329774,1.234 c -0.07481,-0.014 -0.164046,-0.011 -0.216381,0.027 -0.07683,0.046 -0.08619,0.1197 -0.07927,0.1564 0.04211,0.2088 0.436703,0.029 0.432765,-0.079 -0.0025,-0.053 -0.06227,-0.089 -0.137114,-0.1031 z m 20.839048,0.4457 c -0.02705,0.2058 0.05451,0.3679 0.07713,0.5206 0.01635,0.1101 -0.0174,0.2097 0.01928,0.3149 0.06449,0.1839 0.324855,0.3727 0.569876,0.3727 0.205653,0 0.384542,-0.1384 0.55488,-0.257 -0.393163,-0.334 -0.804708,-0.6454 -1.221163,-0.9512 z m -2.4359,0.8955 c -0.100683,0.131 -0.280501,0.077 -0.452045,0.1371 -0.13843,0.048 -0.397048,0.2858 -0.432762,0.3707 -0.05902,0.1398 0.01439,0.2967 0,0.512 0.11208,0.048 0.181301,0.2697 0.372775,0.3749 0.07242,0.04 0.171132,0.021 0.235663,0.058 0.112084,0.062 0.200635,0.2007 0.17782,0.3127 -0.03319,0.1612 -0.243954,0.1183 -0.353496,0.2378 0.0188,0.2286 -0.159386,0.2587 -0.216382,0.4114 0.03426,0.096 0.179607,0.079 0.194958,0.1949 -0.02182,0.125 -0.243571,0.1445 -0.194958,0.2764 0.210291,0.1641 0.428844,-0.033 0.627722,-0.058 0.439383,-0.055 0.889219,0.054 1.159034,-0.1585 -0.0367,-0.2098 0.219925,-0.2839 0.1971,-0.4713 -0.01742,-0.1414 -0.252424,-0.1573 -0.355637,-0.255 -0.05501,-0.053 -0.06747,-0.1726 -0.134971,-0.2742 -0.07732,-0.1166 -0.228632,-0.2014 -0.314932,-0.3149 -0.115533,-0.1533 -0.353909,-0.3741 -0.353494,-0.4907 0.0018,-0.1338 0.165227,-0.1721 0.194957,-0.3555 -0.03417,-0.1687 -0.346403,-0.055 -0.370634,-0.2335 0.01284,-0.1112 0.114692,-0.1311 0.115689,-0.255 -0.0228,-0.016 -0.05127,-0.027 -0.09641,-0.019 z m 3.927005,0.4691 c -0.297083,0.1414 -0.506871,0.1012 -0.589159,0.3342 -0.104195,0.2957 0.179243,0.5121 0.137114,0.7863 -0.04462,0.2882 -0.640753,0.1875 -0.904089,0.2357 -0.1969,0.036 -0.26845,0.2769 -0.430622,0.4713 -0.112571,0.1354 -0.325577,0.2816 -0.49275,0.3535 -0.08182,0.035 -0.180068,0.03 -0.254944,0.079 -0.110604,0.074 -0.148765,0.2473 -0.274226,0.3321 -0.09033,0.061 -0.433926,0.2337 -0.529171,0.2356 -0.111589,0 -0.215341,-0.1022 -0.29565,-0.077 -0.118003,0.037 -0.102714,0.2678 -0.235664,0.3149 -0.260377,0.092 -0.695524,-0.2315 -0.786258,0.1564 0.111587,0.2246 0.396441,0.1694 0.591301,0.2935 0.122514,0.078 0.379074,0.4192 0.411339,0.5505 0.02726,0.1112 -0.01435,0.5504 -0.05999,0.6685 -0.121523,0.3134 -0.404286,0.2035 -0.764835,0.195 -0.09869,0 -0.202277,0.026 -0.293507,0.019 -0.608036,-0.041 -1.218501,-0.2529 -1.493247,0.18 0.02219,0.3332 0.09268,0.5544 0.01928,0.844 -0.05403,0.2129 -0.245033,0.4047 -0.235663,0.5892 0.0044,0.094 0.114221,0.1843 0.137113,0.3128 0.01195,0.068 -0.0318,0.2144 0,0.2763 0.09969,0.1935 0.372996,0.03 0.550596,0.058 0.173581,0.029 0.374762,0.2768 0.372775,0.4713 -0.0017,0.1354 -0.132717,0.3601 -0.218523,0.4905 -0.17154,0.2604 -0.401489,0.2746 -0.647002,0.4136 -0.204791,0.116 -0.291297,0.308 -0.41134,0.5098 -0.129978,0.2182 -0.209935,0.3504 -0.156395,0.6663 -0.175557,0.3482 -0.441956,0.5628 -0.805539,0.7285 -0.107573,0.048 -0.254796,0.065 -0.353495,0.1371 -0.07829,0.057 -0.124073,0.2087 -0.235663,0.3342 -0.137371,0.1538 -0.281076,0.2171 -0.353494,0.3342 -0.05598,0.091 -0.07561,0.2705 -0.137113,0.3921 -0.08385,0.1646 -0.26481,0.2462 -0.37492,0.4135 -0.05061,0.077 -0.08108,0.2308 -0.137112,0.332 -0.124486,0.2262 -0.335625,0.3903 -0.312794,0.5892 0.02273,0.1925 0.237931,0.2265 0.252802,0.3941 0.0087,0.094 -0.06179,0.1518 -0.05784,0.255 0.0066,0.1508 0.105928,0.2568 0.117832,0.3727 0.02976,0.2917 -0.101368,0.4092 -0.156395,0.6085 -0.02632,0.095 -0.01375,0.202 -0.03857,0.2764 -0.04815,0.1458 -0.250971,0.2773 -0.254945,0.4498 -0.0026,0.1232 0.126685,0.2222 0.137113,0.3943 0.0077,0.1184 -0.06153,0.2422 -0.0407,0.3513 0.04169,0.2138 0.423043,0.4638 0.589158,0.6299 0.222192,0.2221 0.512701,0.3936 0.608439,0.6278 0.08084,0.1988 0.08311,0.4607 0.237805,0.6106 0.114551,0.1099 0.303089,0.1783 0.449902,0.2934 0.136811,0.1064 0.286513,0.2009 0.432765,0.315 0.2391,0.1871 0.600303,0.5579 0.981215,0.5291 0.198874,-0.014 0.402076,-0.1762 0.62772,-0.2163 0.232124,-0.042 0.53288,-0.062 0.766977,-0.039 0.179573,0.018 0.361974,0.1269 0.548451,0.118 0.196832,-0.011 0.425474,-0.1573 0.649146,-0.2551 0.387321,-0.1685 0.965975,-0.3955 1.531809,-0.3127 0.431002,0.062 0.408432,0.5565 0.706991,0.7456 0.346673,0.029 0.629834,-0.128 0.904089,-0.06 0.207323,0.052 0.451528,0.3649 0.471326,0.5292 0.02035,0.1704 -0.09303,0.4262 -0.117831,0.5313 -0.05412,0.229 -0.05743,0.5018 -0.09855,0.647 -0.0318,0.1125 -0.119818,0.1853 -0.117831,0.2978 0.0025,0.1031 0.130061,0.3535 0.235663,0.4885 0.128991,0.1655 0.336005,0.2938 0.492751,0.4735 0.287639,0.3287 0.409563,0.7255 0.608439,1.159 0.07242,0.1571 0.210806,0.4021 0.214239,0.5678 0.0026,0.1223 -0.06926,0.2299 -0.05784,0.3534 0.02475,0.2633 0.188623,0.379 0.216382,0.6106 0.0645,0.546 -0.428994,0.7079 -0.529171,1.1569 -0.02368,0.1075 4.93e-4,0.2186 -0.02142,0.3149 -0.03377,0.1458 -0.137188,0.2542 -0.158537,0.392 -0.02134,0.1409 -0.05199,0.4079 -0.03857,0.5507 0.01987,0.2103 0.245102,0.4036 0.355636,0.5891 0.117575,0.1974 0.212992,0.5297 0.351353,0.7841 0.07683,0.141 0.206101,0.2599 0.237806,0.3749 0.0411,0.1493 -0.0026,0.3482 0.01928,0.5292 0.01733,0.1469 0.09795,0.2741 0.117832,0.392 0.06096,0.3617 0.074,0.7227 0.254945,1.024 0.0066,0.011 0.0204,0.023 0.02785,0.032 3.454441,-3.8742 5.568069,-8.973 5.568069,-14.596 0,-2.4001 -0.395216,-4.7019 -1.10119,-6.8601 -0.258292,-0.054 -0.529733,-0.226 -0.822678,-0.2591 -0.08731,-0.011 -0.186475,0.017 -0.254945,0 -0.09074,-0.024 -0.160758,-0.1279 -0.254946,-0.1586 -0.163227,-0.053 -0.289472,-0.019 -0.432762,-0.058 -0.193449,-0.3407 -1.173821,-0.3642 -1.257584,0.1372 -0.03727,0.2212 0.114607,0.5316 -0.214239,0.5698 -0.208812,0.024 -0.422975,-0.2121 -0.709132,-0.2743 -0.117014,-0.026 -0.281547,-0.011 -0.372776,-0.041 -0.214233,-0.073 -0.188342,-0.2813 -0.372777,-0.4113 -0.107145,-0.076 -0.381451,-0.1787 -0.550595,-0.197 -0.105104,-0.011 -0.201694,0.032 -0.312788,0.019 -0.131952,-0.014 -0.321181,-0.1075 -0.432764,-0.1757 -0.106586,-0.064 -0.32623,-0.1638 -0.353494,-0.2571 -0.04169,-0.1447 0.265939,-0.3075 0.276368,-0.4306 0.0077,-0.093 -0.116422,-0.1529 -0.139256,-0.2956 -0.01342,-0.087 0.0378,-0.176 0.02142,-0.2335 -0.02879,-0.1012 -0.197486,-0.214 -0.355638,-0.2165 -0.139912,0 -0.272511,0.1139 -0.392058,0.1178 -0.1726,0 -0.452544,-0.096 -0.666285,-0.079 -0.130962,0.011 -0.252903,0.089 -0.374917,0.099 -0.342234,0.028 -0.617852,-0.015 -0.882666,0 -0.192884,0.011 -0.527489,0.075 -0.706989,0.1564 -0.09122,0.042 -0.158862,0.136 -0.276368,0.1949 -0.05305,0.027 -0.126725,0.029 -0.197101,0.06 -0.111591,0.05 -0.225974,0.1705 -0.332071,0.1972 -0.153785,0.04 -0.390721,-0.031 -0.668425,-0.019 -0.19937,0.011 -0.526189,0.011 -0.529172,-0.2378 -0.0049,-0.3635 0.616573,-0.2295 0.959792,-0.2935 0.129414,-0.024 0.200931,-0.144 0.355638,-0.2356 0.07397,-0.044 0.166196,-0.05 0.235663,-0.099 0.118983,-0.083 0.297528,-0.278 0.314931,-0.3728 0.01538,-0.088 -0.05106,-0.2093 -0.0407,-0.2742 0.01349,-0.084 0.109793,-0.1713 0.21638,-0.2763 0.165622,-0.1637 0.347283,-0.3836 0.550595,-0.4907 0.138922,-0.073 0.328091,-0.064 0.392058,-0.1757 0.01439,-0.1259 -0.02225,-0.1982 -0.01928,-0.3128 0.08534,-0.078 0.144951,-0.1453 0.216382,-0.1606 0.211764,-0.046 0.419788,0.1497 0.666283,0.1393 0.106587,0 0.200381,-0.083 0.314932,-0.1586 0.09621,-0.063 0.199248,-0.1087 0.293507,-0.1565 0.103636,-0.054 0.210395,-0.1677 0.336356,-0.1756 0.308983,-0.019 0.427329,0.3261 0.567734,0.512 0.117507,0.1548 0.456259,0.4184 0.649146,0.5272 0.108626,0.061 0.253223,0.065 0.372774,0.1199 0.25495,0.1145 0.756351,0.4956 0.764835,0.7455 0.0043,0.1251 -0.115775,0.2192 -0.09641,0.3343 0.192888,0.032 0.408515,-0.1794 0.413481,-0.3729 0.0027,-0.121 -0.121954,-0.1874 -0.09855,-0.3148 0.09024,-0.1944 0.352591,0 0.469183,-0.079 -0.02231,-0.2197 -0.322428,-0.2372 -0.509889,-0.3514 -0.101185,-0.061 -0.169117,-0.1945 -0.274227,-0.2378 -0.152238,-0.062 -0.314198,-0.045 -0.432763,-0.137 -0.111099,-0.086 -0.166752,-0.2831 -0.276369,-0.4136 -0.159212,-0.1899 -0.507079,-0.2184 -0.411339,-0.6469 0.04765,-0.064 0.161767,-0.1644 0.235664,-0.1372 0.145825,0.035 0.128019,0.1603 0.235662,0.2356 0.07829,0.055 0.188593,0.044 0.276369,0.099 0.103143,0.064 0.157701,0.234 0.274227,0.3321 0.164706,0.1383 0.455648,0.2451 0.687707,0.3556 0.217256,0.1031 0.565823,0.2432 0.608439,0.4307 0.02378,0.1052 -0.03318,0.2232 -0.01928,0.3149 0.01733,0.1166 0.100305,0.2354 0.156395,0.3129 0.151739,0.2093 0.364138,0.3952 0.531313,0.6491 -0.0049,0.3452 0.12249,0.5585 0.509889,0.512 0.139839,-0.075 0.06823,-0.1791 0.177818,-0.2957 0.103131,-0.1097 0.330086,-0.094 0.332072,-0.2549 0.0026,-0.2465 -0.58731,-0.2861 -0.50989,-0.6492 0.02279,-0.1161 0.151807,-0.059 0.254944,-0.058 0.08817,-0.1022 0.225981,-0.2138 0.370635,-0.2571 -0.929187,-1.7259 -2.094847,-3.2999 -3.434255,-4.7069 -0.02642,0 -0.05278,0.015 -0.07927,0.015 -0.146318,0 -0.296548,-0.1799 -0.529171,-0.1778 -0.120042,0 -0.210721,0.087 -0.334213,0.099 -0.15569,0.015 -0.403398,-0.052 -0.392057,-0.1757 0.01741,-0.1938 0.279865,-0.034 0.43062,-0.06 0.189508,-0.033 0.147449,-0.1921 0.276368,-0.2164 0.05455,-0.011 0.110347,0.015 0.173535,0.037 -0.09889,-0.098 -0.207772,-0.1848 -0.308504,-0.2807 -0.111602,0.1052 -0.382056,0.1469 -0.533456,0.1456 -0.01586,-0.1774 0.02552,-0.4681 -0.117832,-0.5698 z m -5.276712,0.7541 c -0.08029,0.011 -0.15722,0.031 -0.222809,0.072 -0.149276,0.091 -0.199328,0.2322 -0.314932,0.2762 -0.159212,0.06 -0.26977,0.011 -0.293507,0.1565 -0.01937,0.121 0.102002,0.1798 0.09855,0.2935 -0.05803,0.1444 -0.228345,0.1815 -0.257086,0.3556 0.198873,0.3248 0.678522,0.033 0.925513,-0.041 0.1111,-0.033 0.272048,-0.027 0.33207,-0.1157 0.0685,-0.1043 0.0073,-0.2848 0.05784,-0.435 0.05696,-0.1651 0.218547,-0.1848 0.199242,-0.332 -0.01899,-0.1463 -0.28413,-0.2534 -0.52488,-0.2293 z m -24.0654936,0.5613 c 0.3674603,-0.086 0.2191687,0.5641 0,0.5721 -0.3055275,0.011 -0.2460708,-0.5146 0,-0.5721 z m 2.4744626,1.7312 c 0.178026,0.047 0.646282,0.5595 0.254945,0.7262 -0.03711,0.015 -0.575651,0.074 -0.668426,0.058 -0.135829,-0.024 -0.213983,-0.2113 -0.351353,-0.2356 -0.271294,-0.047 -0.638841,0.3267 -0.8248207,0.018 0.04708,-0.1746 0.2426477,-0.179 0.4499017,-0.2357 0.368022,-0.1001 0.821335,-0.4153 1.139753,-0.332 z m 0.747695,0.9404 c 0.09171,0.011 0.201686,0.1098 0.312789,0.1178 0.105105,0.011 0.192626,-0.055 0.257087,-0.039 0.164152,0.043 0.231397,0.2921 0.07713,0.4136 -0.12843,0.015 -0.177501,-0.056 -0.274227,-0.039 -0.266788,0.046 -0.370506,0.5658 -0.569876,0.5485 -0.188026,-0.016 -0.289461,-0.4721 -0.09855,-0.6085 0.0076,-0.119 -0.08528,-0.1394 -0.07926,-0.257 0.05755,-0.074 0.218242,-0.1505 0.374919,-0.1371 z m -0.884808,0.062 c 0.05473,0 0.09749,0.012 0.117832,0.036 -0.02631,0.2093 -0.191813,0.1981 -0.353496,0.2957 -0.279255,0.1686 -0.440337,0.4262 -0.529171,0.7863 -0.02578,0.1052 -0.299829,0.3791 -0.432763,0.3514 -0.3114437,-0.065 0.08543,-0.6391 0.156395,-0.7264 0.07831,-0.096 0.183658,-0.1819 0.276368,-0.2934 0.08975,-0.1086 0.14673,-0.255 0.233521,-0.315 0.09484,-0.064 0.367215,-0.1411 0.531314,-0.135 z m 2.324496,0.7069 c 0.09965,0 0.186157,0.015 0.227093,0.056 -0.06401,0.2594 -0.620446,0.1923 -0.824821,0.099 0.01342,-0.098 0.167153,-0.1242 0.295649,-0.1371 0.09104,-0.011 0.202388,-0.019 0.302079,-0.017 z m -1.272582,0.4778 c 0.06705,0 0.135866,0 0.20567,0.03 -0.180981,0.1512 -0.377245,0.236 -0.687708,0.3342 -0.149282,0.047 -0.407469,0.1064 -0.432763,-0.06 -0.03123,-0.2041 0.217106,-0.1572 0.353495,-0.1755 0.171507,-0.024 0.360276,-0.1222 0.561306,-0.1286 z m 25.593015,0 c -0.127352,0.042 -0.187828,0.3107 0.0064,0.3449 0.09023,-0.054 0.159447,-0.1273 0.137113,-0.2934 -0.04981,-0.054 -0.09894,-0.065 -0.141398,-0.051 l -0.0021,0 z m -0.04927,0.5485 c -0.06295,0.017 -0.131787,0.06 -0.199243,0.1306 0.0049,0.2193 0.02387,0.3601 -0.01928,0.5506 0.126525,0.242 0.404659,0.024 0.469183,-0.1393 0.07585,-0.4086 -0.06196,-0.5933 -0.25066,-0.5419 z m 1.675349,1.0819 c -0.174813,-0.011 -0.338904,0.011 -0.441332,0.09 0.143855,0.2356 0.445098,0.3148 0.766977,0.3729 0.116022,-0.087 0.122633,-0.2826 0.175676,-0.4328 -0.141107,0 -0.326502,-0.022 -0.501321,-0.03 z m -26.857025,10.2042 c 0.18844,-0.087 0.234577,0.2683 0.07926,0.2934 -0.146813,0.024 -0.221687,-0.2275 -0.07926,-0.2934 z"
       id="path34" />
    <path
       style="fill:#ef7b89;fill-opacity:1;stroke:none"
       d="m 23.842857,1018.7519 c -2.105474,0 -4.210311,0.7981 -5.816594,2.3953 -3.21257,3.1934 -3.21257,8.3733 0,11.5668 l 5.816594,5.7822 5.816594,-5.7822 c 3.212565,-3.1935 3.213249,-8.3728 0,-11.5668 -1.606283,-1.5972 -3.711119,-2.3953 -5.816594,-2.3953 z m 0,2.7424 c 1.264559,0 2.529317,0.481 3.492099,1.4439 1.925564,1.9256 1.925564,5.0593 0,6.9842 -1.925564,1.9258 -5.058636,1.9258 -6.984198,0 -1.925564,-1.9249 -1.925562,-5.0584 0,-6.9842 0.962781,-0.9629 2.22754,-1.4439 3.492099,-1.4439 z"
       id="path4155"
       inkscape:connector-curvature="0" />
  </g>
</svg>
