<?xml version="1.0" encoding="UTF-8" standalone="no"?>
<!-- Generator: flash2svg, http://dissentgraphics.com/tools/flash2svg -->

<svg
   xmlns:dc="http://purl.org/dc/elements/1.1/"
   xmlns:cc="http://creativecommons.org/ns#"
   xmlns:rdf="http://www.w3.org/1999/02/22-rdf-syntax-ns#"
   xmlns:svg="http://www.w3.org/2000/svg"
   xmlns="http://www.w3.org/2000/svg"
   xmlns:sodipodi="http://sodipodi.sourceforge.net/DTD/sodipodi-0.dtd"
   xmlns:inkscape="http://www.inkscape.org/namespaces/inkscape"
   id="Skype"
   image-rendering="optimizeSpeed"
   version="1.1"
   style="background-color:#ffffff"
   x="0px"
   y="0px"
   width="1024px"
   height="1024px"
   viewBox="0 0 1024 1024"
   enable-background="new 0 0 1024 1024"
   inkscape:version="0.48.4 r9939"
   sodipodi:docname="skype.svg">
  <metadata
     id="metadata20">
    <rdf:RDF>
      <cc:Work
         rdf:about="">
        <dc:format>image/svg+xml</dc:format>
        <dc:type
           rdf:resource="http://purl.org/dc/dcmitype/StillImage" />
      </cc:Work>
    </rdf:RDF>
  </metadata>
  <sodipodi:namedview
     pagecolor="#ffffff"
     bordercolor="#666666"
     borderopacity="1"
     objecttolerance="10"
     gridtolerance="10"
     guidetolerance="10"
     inkscape:pageopacity="0"
     inkscape:pageshadow="2"
     inkscape:window-width="640"
     inkscape:window-height="480"
     id="namedview18"
     showgrid="false"
     inkscape:zoom="0.23046875"
     inkscape:cx="512"
     inkscape:cy="512"
     inkscape:window-x="15"
     inkscape:window-y="39"
     inkscape:window-maximized="0"
     inkscape:current-layer="Skype" />
  <defs
     transform="matrix(1 0 0 1 0 0) "
     id="defs3" />
  <g
     id="shadow"
     transform="matrix(1.0455799,0,0,1.0455799,-19.825477,-27.215307)">
    <g
       id="shape">
      <path
         id="path"
         d="m 957.65,339.3 q -8.613,-20.873 -19.4,-40.85 C 934.2,290.9 929.9,283.4 925.35,276.05 905.8,244.35 881.95,214.4 853.8,186.25 761.65,94.1 650.35,48 520,48 389.65,48 278.4,94.1 186.25,186.25 94.1,278.4 48,389.65 48,520 48,650.35 94.1,761.65 186.25,853.8 278.4,945.95 389.65,992 520,992 650.35,992 761.65,945.95 853.8,853.8 904.55,803 941.35,746.4 964.15,684.05 982.7,633.2 992,578.55 992,520 c 0,-44.9 -5.45,-87.55 -16.4,-127.95 -1.25,-4.55 -2.55,-9.1 -3.9,-13.6 -4.1,-13.3 -8.8,-26.35 -14.05,-39.15 z"
         inkscape:connector-curvature="0"
         style="fill:#000000;fill-opacity:0.09803922" />
    </g>
  </g>
  <g
     id="circle"
     transform="matrix(1.0455799,0,0,1.0455799,-19.825477,-27.215307)">
    <g
       id="shape2">
      <path
         id="path1"
         d="m 969.75,392.05 c -1.1,-4.35 -2.35,-9 -3.65,-13.6 -2.5,-8.75 -5.35,-17.6 -8.45,-26.35 -6.45,-18.25 -14.15,-36.05 -23.15,-53.65 -3.8,-7.4 -7.95,-14.95 -12.3,-22.4 l -0.025,0 Q 891.574,224.04 845.85,178.3 C 753.7,86.15 642.4,40.05 512.05,40.05 381.7,40.05 270.45,86.15 178.3,178.3 86.15,270.45 40.05,381.7 40.05,512.05 c 0,130.35 46.1,241.65 138.25,333.8 92.15,92.15 203.4,138.2 333.75,138.2 12.7,0 25.2,-0.45 37.05,-1.25 20.2,-1.45 39.9,-4.05 58.7,-7.7 7.95,-1.55 15.8,-3.3 23.4,-5.15 80.8,-20.3 152.15,-61.6 214.65,-124.1 48.6,-48.6 84.4,-102.5 107.35,-161.8 18.45,-47.65 28.65,-98.8 30.55,-153.5 0.2,-6.05 0.3,-12.25 0.3,-18.5 0,-41.75 -4.7,-81.6 -14.3,-120 z"
         inkscape:connector-curvature="0"
         style="fill:#04aaf4;fill-opacity:1" />
    </g>
  </g>
  <g
     id="circle1"
     transform="matrix(1.0455799,0,0,1.0455799,-19.825477,-27.215307)">
    <g
       id="shape4">
      <path
         id="path2"
         d="M 980.2,575.6 675.05,270.45 381.8,292.425 l -56.575,192.5 217.15,217.15 -52.325,13.775 -128,-128 -51.45,139.2 254.375,254.375 0.025,0.025 c 14.7,-1.55 29,-3.65 42.8,-6.35 7.95,-1.55 15.8,-3.3 23.4,-5.15 80.8,-20.3 152.15,-61.6 214.65,-124.1 48.6,-48.6 84.4,-102.5 107.35,-161.8 q 19.975,-51.542 27,-108.45 z"
         inkscape:connector-curvature="0"
         style="fill:#000000;fill-opacity:0.2" />
    </g>
  </g>
  <g
     id="Livello.__201"
     transform="matrix(1.0455799,0,0,1.0455799,-19.825477,-27.215307)">
    <g
       id="drawingObject">
      <path
         id="path3"
         d="m 715.966,316.246 c -8.445,-15.779 -22.003,-31.003 -40.227,-45.227 -18.113,-14.113 -41.116,-25.559 -68.341,-34.115 -27.225,-8.445 -59.673,-12.668 -96.677,-12.668 -46.228,0 -87.121,6.445 -121.459,19.113 q -52.561,19.447 -80.342,55.784 c -18.669,24.336 -28.114,52.562 -28.114,83.787 0,32.893 9.001,60.785 26.781,83.01 17.446,21.891 41.449,39.449 71.119,52.117 29.003,12.335 65.563,23.225 108.456,32.448 31.671,6.556 57.229,12.89 76.009,18.78 18.002,5.667 32.893,13.89 44.227,24.336 10.668,10.112 15.891,23.002 15.891,39.338 0,20.669 -10.001,37.559 -30.559,51.672 -21.114,14.335 -49.228,21.669 -83.454,21.669 -24.892,0 -45.116,-3.556 -60.118,-10.668 -14.89,-7.112 -26.558,-16.113 -34.782,-26.892 -8.445,-11.112 -16.446,-25.336 -23.78,-42.115 -6.556,-15.447 -14.668,-27.448 -24.225,-35.449 -10.001,-8.445 -22.225,-12.779 -36.449,-12.779 -17.335,0 -31.892,5.445 -43.227,16.113 -11.445,10.779 -17.335,23.891 -17.335,39.115 0,24.225 9.001,49.45 26.559,74.787 17.446,25.114 40.337,45.449 68.118,60.562 39.005,20.558 88.788,31.004 148.239,31.004 49.561,0 93.122,-7.557 129.459,-22.67 36.671,-15.224 65.008,-36.782 84.121,-63.896 19.224,-27.114 29.003,-58.229 29.003,-92.344 0,-28.558 -5.667,-53.006 -16.891,-72.897 -11.112,-19.78 -26.891,-36.448 -46.671,-49.339 -19.447,-12.668 -43.228,-23.558 -70.786,-32.337 -27.226,-8.667 -58.118,-16.779 -91.566,-24.002 -26.448,-6.112 -45.783,-10.779 -57.34,-14.002 -11.223,-3.111 -22.447,-7.445 -33.337,-12.89 -10.446,-5.334 -18.78,-11.557 -24.669,-18.78 -5.557,-6.779 -8.224,-14.668 -8.224,-24.114 0,-15.335 8.446,-28.336 25.67,-39.671 17.891,-11.779 42.005,-17.669 71.786,-17.669 31.892,0 55.117,5.334 69.119,15.891 14.335,10.89 26.781,26.336 37.115,46.005 8.89,15.335 17.002,26.003 24.669,32.893 8.335,7.334 20.336,11.112 35.671,11.112 16.891,0 31.226,-6.001 42.561,-17.78 11.223,-11.668 17.001,-25.114 17.001,-39.893 0,-15.446 -4.333,-31.337 -13.001,-47.339 z"
         inkscape:connector-curvature="0"
         style="fill:#ffffff;fill-opacity:1" />
      <path
         id="path4"
         stroke-miterlimit="4"
         d="m 715.966,316.246 c -8.445,-15.779 -22.003,-31.003 -40.227,-45.227 -18.113,-14.113 -41.116,-25.559 -68.341,-34.115 -27.225,-8.445 -59.673,-12.668 -96.677,-12.668 -46.228,0 -87.121,6.445 -121.459,19.113 q -52.561,19.447 -80.342,55.784 c -18.669,24.336 -28.114,52.562 -28.114,83.787 0,32.893 9.001,60.785 26.781,83.01 17.446,21.891 41.449,39.449 71.119,52.117 29.003,12.335 65.563,23.225 108.456,32.448 31.671,6.556 57.229,12.89 76.009,18.78 18.002,5.667 32.893,13.89 44.227,24.336 10.668,10.112 15.891,23.002 15.891,39.338 0,20.669 -10.001,37.559 -30.559,51.672 -21.114,14.335 -49.228,21.669 -83.454,21.669 -24.892,0 -45.116,-3.556 -60.118,-10.668 -14.89,-7.112 -26.558,-16.113 -34.782,-26.892 -8.445,-11.112 -16.446,-25.336 -23.78,-42.115 -6.556,-15.447 -14.668,-27.448 -24.225,-35.449 -10.001,-8.445 -22.225,-12.779 -36.449,-12.779 -17.335,0 -31.892,5.445 -43.227,16.113 -11.445,10.779 -17.335,23.891 -17.335,39.115 0,24.225 9.001,49.45 26.559,74.787 17.446,25.114 40.337,45.449 68.118,60.562 39.005,20.558 88.788,31.004 148.239,31.004 49.561,0 93.122,-7.557 129.459,-22.67 36.671,-15.224 65.008,-36.782 84.121,-63.896 19.224,-27.114 29.003,-58.229 29.003,-92.344 0,-28.558 -5.667,-53.006 -16.891,-72.897 -11.112,-19.78 -26.891,-36.448 -46.671,-49.339 -19.447,-12.668 -43.228,-23.558 -70.786,-32.337 -27.226,-8.667 -58.118,-16.779 -91.566,-24.002 -26.448,-6.112 -45.783,-10.779 -57.34,-14.002 -11.223,-3.111 -22.447,-7.445 -33.337,-12.89 -10.446,-5.334 -18.78,-11.557 -24.669,-18.78 -5.557,-6.779 -8.224,-14.668 -8.224,-24.114 0,-15.335 8.446,-28.336 25.67,-39.671 17.891,-11.779 42.005,-17.669 71.786,-17.669 31.892,0 55.117,5.334 69.119,15.891 14.335,10.89 26.781,26.336 37.115,46.005 8.89,15.335 17.002,26.003 24.669,32.893 8.335,7.334 20.336,11.112 35.671,11.112 16.891,0 31.226,-6.001 42.561,-17.78 11.223,-11.668 17.001,-25.114 17.001,-39.893 0,-15.446 -4.333,-31.337 -13.001,-47.339 z"
         inkscape:connector-curvature="0"
         style="fill:none;stroke:#00a8f6;stroke-width:1;stroke-linecap:round;stroke-linejoin:miter;stroke-miterlimit:4;stroke-opacity:1" />
    </g>
  </g>
</svg>
