<?xml version="1.0" encoding="UTF-8" standalone="no"?>
<!-- Created with Inkscape (http://www.inkscape.org/) -->

<svg
   xmlns:dc="http://purl.org/dc/elements/1.1/"
   xmlns:cc="http://creativecommons.org/ns#"
   xmlns:rdf="http://www.w3.org/1999/02/22-rdf-syntax-ns#"
   xmlns:svg="http://www.w3.org/2000/svg"
   xmlns="http://www.w3.org/2000/svg"
   xmlns:sodipodi="http://sodipodi.sourceforge.net/DTD/sodipodi-0.dtd"
   xmlns:inkscape="http://www.inkscape.org/namespaces/inkscape"
   width="48"
   height="48"
   id="svg2"
   version="1.1"
   inkscape:version="0.48.4 r9939"
   viewBox="0 0 13.546666 13.546668"
   sodipodi:docname="sublime-text.svg">
  <defs
     id="defs4" />
  <sodipodi:namedview
     id="base"
     pagecolor="#ffffff"
     bordercolor="#666666"
     borderopacity="1.0"
     inkscape:pageopacity="0"
     inkscape:pageshadow="2"
     inkscape:zoom="8.9002328"
     inkscape:cx="21.845077"
     inkscape:cy="24.6283"
     inkscape:document-units="px"
     inkscape:current-layer="layer1"
     showgrid="false"
     inkscape:showpageshadow="false"
     borderlayer="true"
     units="px"
     fit-margin-top="0"
     fit-margin-left="0"
     fit-margin-right="0"
     fit-margin-bottom="0"
     showguides="true"
     inkscape:window-width="1366"
     inkscape:window-height="744"
     inkscape:window-x="0"
     inkscape:window-y="24"
     inkscape:window-maximized="1">
    <sodipodi:guide
       position="-6.6748425e-06,47.999999"
       orientation="47.999977,0"
       id="guide4120" />
    <sodipodi:guide
       position="-6.6748425e-06,2.2810037e-05"
       orientation="0,48.000004"
       id="guide4122" />
    <sodipodi:guide
       position="47.999997,2.2810037e-05"
       orientation="-47.999977,0"
       id="guide4124" />
    <sodipodi:guide
       position="47.999997,47.999999"
       orientation="0,-48.000004"
       id="guide4126" />
    <sodipodi:guide
       position="3.9999733,44.000154"
       orientation="39.999962,0"
       id="guide4138" />
    <sodipodi:guide
       position="3.9999733,4.0001921"
       orientation="0,40.000003"
       id="guide4140" />
    <sodipodi:guide
       position="43.999976,4.0001921"
       orientation="-39.999962,0"
       id="guide4142" />
    <sodipodi:guide
       position="43.999976,44.000154"
       orientation="0,-40.000003"
       id="guide4144" />
    <sodipodi:guide
       position="6.9999922,47.999999"
       orientation="39.999962,0"
       id="guide4148" />
    <sodipodi:guide
       position="6.9999922,8.0000369"
       orientation="0,34.000006"
       id="guide4150" />
    <sodipodi:guide
       position="40.999998,8.0000369"
       orientation="-39.999962,0"
       id="guide4152" />
    <sodipodi:guide
       position="40.999998,47.999999"
       orientation="0,-34.000006"
       id="guide4154" />
    <sodipodi:guide
       position="14.999993,32.999986"
       orientation="17.999951,0"
       id="guide4158" />
    <sodipodi:guide
       position="14.999993,15.000036"
       orientation="0,17.999998"
       id="guide4160" />
    <sodipodi:guide
       position="32.999991,15.000036"
       orientation="-17.999951,0"
       id="guide4162" />
    <sodipodi:guide
       position="32.999991,32.999986"
       orientation="0,-17.999998"
       id="guide4164" />
    <sodipodi:guide
       position="1.9999969,44.000046"
       orientation="39.999962,0"
       id="guide3279" />
    <sodipodi:guide
       position="1.9999969,4.0000839"
       orientation="0,44.000003"
       id="guide3281" />
    <sodipodi:guide
       position="46,4.0000839"
       orientation="-39.999962,0"
       id="guide3283" />
    <sodipodi:guide
       position="46,44.000046"
       orientation="0,-44.000003"
       id="guide3285" />
  </sodipodi:namedview>
  <metadata
     id="metadata7">
    <rdf:RDF>
      <cc:Work
         rdf:about="">
        <dc:format>image/svg+xml</dc:format>
        <dc:type
           rdf:resource="http://purl.org/dc/dcmitype/StillImage" />
        <dc:title />
      </cc:Work>
    </rdf:RDF>
  </metadata>
  <g
     inkscape:label="Capa 1"
     inkscape:groupmode="layer"
     id="layer1"
     transform="translate(38.119153,-397.84494)">
    <rect
       style="fill:#ecf0f1;fill-opacity:1;stroke:none"
       id="rect4118"
       width="12.715825"
       height="12.715778"
       x="-37.719593"
       y="398.3396"
       ry="6.3578892" />
    <rect
       ry="5.4042053"
       y="399.2933"
       x="-36.765903"
       height="10.808411"
       width="10.808452"
       id="rect4120"
       style="fill:#34495e;fill-opacity:1;stroke:none" />
    <path
       inkscape:connector-curvature="0"
       id="path4127"
       style="font-size:7.12482548px;font-style:normal;font-variant:normal;font-weight:bold;font-stretch:normal;line-height:125%;letter-spacing:0px;word-spacing:0px;fill:#e67e22;fill-opacity:1;stroke:none;font-family:Code Bold;-inkscape-font-specification:'Code Bold, Bold'"
       d="m -29.455634,403.31319 -0.802541,0.0321 q -0.08026,-0.35312 -0.417321,-0.53771 -0.329042,-0.18458 -0.730313,-0.17655 -0.698211,0.0161 -1.019228,0.42534 -0.160508,0.20867 -0.136432,0.52166 0.008,0.16853 0.09631,0.28891 0.08828,0.12038 0.192611,0.1926 0.104327,0.0722 0.296939,0.12039 0.192611,0.0481 0.321017,0.0642 0.136432,0.0161 0.369169,0.0401 0.345094,0.0401 0.601906,0.1043 0.264839,0.0642 0.56178,0.19262 0.304965,0.12038 0.497575,0.35311 0.200636,0.22472 0.28089,0.54573 0.04012,0.20064 0.04012,0.36917 0,0.77044 -0.634007,1.24394 -0.634008,0.46548 -1.4526,0.46548 -0.449424,0 -0.882796,-0.16052 -0.433373,-0.16853 -0.762415,-0.52164 -0.329042,-0.36115 -0.377195,-0.83464 l -0.008,-0.1525 0.818592,-0.016 0.008,0.12038 0,-0.0321 q 0.04012,0.36917 0.409296,0.58586 0.36917,0.20866 0.802541,0.20866 0.489551,0 0.874771,-0.24879 0.38522,-0.25681 0.38522,-0.6661 0,-0.0803 -0.02407,-0.19262 -0.0321,-0.15248 -0.144457,-0.25681 -0.112358,-0.1043 -0.312992,-0.16051 -0.192609,-0.0562 -0.353118,-0.0802 -0.160507,-0.0321 -0.425347,-0.0562 -0.312991,-0.0321 -0.545728,-0.0722 -0.224712,-0.0401 -0.505601,-0.13643 -0.272864,-0.1043 -0.457449,-0.24879 -0.184584,-0.15248 -0.321016,-0.40127 -0.136432,-0.2568 -0.160508,-0.59388 l 0,0.008 q -0.04815,-0.6019 0.304965,-1.06737 0.272864,-0.35313 0.730313,-0.54573 0.465474,-0.20064 0.971075,-0.20064 0.714262,0 1.259991,0.37719 0.545728,0.3772 0.650058,1.09949 z" />
  </g>
</svg>
