<svg width="48" xmlns="http://www.w3.org/2000/svg" viewBox="0 0 48 48" height="48">
 <path d="m8.0571 6c-1.0285 0-2.0571 1.0286-2.0571 2.0571v31.943c0 0.97143 1.0286 2 2 2h32c0.97143 0 2-1.0286 2-2v-32c0-0.9714-1.029-2-2-2z" fill="#c19553"/>
 <g fill="#fff">
  <path d="m8.0571 6c-1.0285 0-2.0571 1.0286-2.0571 2.0571v9.9429h36v-10c0-0.9714-1.029-2-2-2z" fill-opacity=".196"/>
  <path d="m21 10v16h6v-16z" fill-opacity=".392"/>
 </g>
 <g transform="scale(1.0584 .94485)" fill="#fff">
  <path d="m14.871 38.776c0.04451 0.0089 0.09348 0.01336 0.1469 0.01336 0.05342 0.000001 0.10238 0.000001 0.1469 0 0.37393 0.000001 0.68554-0.07122 0.93484-0.21368 0.25819-0.14245 0.46296-0.33832 0.61432-0.58761 0.16025-0.24929 0.27154-0.54309 0.33387-0.88142 0.07122-0.34722 0.10683-0.72561 0.10684-1.1352-0.000004-0.35612-0.02671-0.70335-0.08013-1.0417-0.05342-0.33832-0.14691-0.63657-0.28045-0.89477-0.13355-0.25819-0.31607-0.46296-0.54755-0.61432-0.23149-0.16025-0.52974-0.24038-0.89477-0.24039-0.07123 0.000007-0.15136 0.0045-0.24039 0.01336-0.08903 0.000007-0.16916 0.0089-0.24039 0.02671v5.5556m3.953-2.8045c-0.000006 0.76568-0.09794 1.4201-0.2938 1.9632-0.18697 0.53419-0.44962 0.97045-0.78793 1.3088-0.33833 0.33832-0.74342 0.58761-1.2153 0.74787-0.46297 0.15135-0.9749 0.22703-1.5358 0.22703-0.29381 0-0.58316-0.01781-0.86806-0.05342-0.276-0.02671-0.57426-0.07568-0.89477-0.1469v-8.0663c0.37393-0.08012 0.72561-0.13354 1.055-0.16026 0.32942-0.0267 0.63658-0.04006 0.92148-0.04007 0.54309 0.000009 1.0372 0.08014 1.4824 0.24039 0.45406 0.16027 0.8369 0.41401 1.1485 0.76122 0.31161 0.33833 0.55199 0.77458 0.72116 1.3088 0.17806 0.52529 0.26709 1.1619 0.2671 1.9097"/>
  <path d="m20.026 40.111v-8.2666h5.008v1.3622h-3.3654v1.8563h2.9247v1.3622h-2.9247v2.3237h3.6592v1.3622h-5.3019"/>
  <path d="m32.125 37.614c-0.000006 0.49858-0.08459 0.91703-0.25374 1.2554-0.16917 0.32942-0.40065 0.59651-0.69445 0.80129-0.28491 0.19587-0.62768 0.33832-1.0283 0.42735-0.39174 0.08013-0.81465 0.12019-1.2687 0.12019-0.36503 0-0.74342-0.02226-1.1352-0.06677-0.39174-0.03561-0.77903-0.09348-1.1619-0.17361v-8.0262c0.31161-0.05341 0.65438-0.09793 1.0283-0.13355 0.37393-0.04451 0.74341-0.06677 1.1084-0.06677 0.62322 0.000009 1.1307 0.06678 1.5224 0.20032 0.39174 0.12465 0.6989 0.29381 0.92148 0.50748 0.22257 0.20478 0.37393 0.43626 0.45406 0.69445 0.08012 0.2582 0.12019 0.51639 0.12019 0.77458-0.000006 0.39175-0.09794 0.73897-0.29381 1.0417-0.18697 0.30271-0.44071 0.5431-0.76122 0.72116 0.5609 0.20478 0.93928 0.48078 1.1352 0.828 0.20477 0.34723 0.30715 0.71226 0.30716 1.0951m-3.8996-1.1218v2.2436c0.11574 0.01781 0.24038 0.03116 0.37394 0.04006 0.14245 0.0089 0.28045 0.01336 0.414 0.01336 0.18696 0.000001 0.36948-0.01335 0.54755-0.04007 0.17806-0.03561 0.33386-0.09348 0.46742-0.17361 0.14245-0.08903 0.25819-0.20922 0.34722-0.36058 0.08903-0.16026 0.13354-0.36058 0.13355-0.60097-0.000005-0.40064-0.1291-0.68554-0.38729-0.85471-0.24929-0.17806-0.58762-0.26709-1.015-0.2671h-0.88142m0.64103-1.3622c0.41845 0.000005 0.73451-0.08903 0.94819-0.2671 0.21367-0.18696 0.32051-0.4407 0.32052-0.76122-0.000005-0.19586-0.03117-0.35167-0.09348-0.46742-0.06233-0.12464-0.14691-0.21812-0.25374-0.28045-0.10684-0.07122-0.23149-0.11573-0.37393-0.13355-0.14246-0.0267-0.28936-0.04006-0.44071-0.04006-0.12465 0.000007-0.25374 0.0045-0.38729 0.01336-0.13355 0.0089-0.25374 0.02226-0.36058 0.04006v1.8964h0.64103"/>
 </g>
</svg>
