<svg height="48" width="48" xmlns="http://www.w3.org/2000/svg" xmlns:xlink="http://www.w3.org/1999/xlink" viewBox="0 0 48 48">
 <path d="m8.0571 6c-1.0285 0-2.0571 1.0286-2.0571 2.0571v31.943c0 0.97143 1.0286 2 2 2h32c0.97143 0 2-1.0286 2-2v-32c0-0.9714-1.029-2-2-2z" fill="#eee"/>
 <path d="m23.325 12.107c-2.0044 0.64066-0.24633 3.6239-3.1146 5.0852-3.2781 1.67-4.9077-2.5444-6.8766 0.46426-1.9688 3.0086 2.7172 2.542 2.5852 6.0831-0.13209 3.5411-4.7693 2.789-3.0292 5.9137s3.6725-0.97619 6.8185 0.89486c3.146 1.8711 0.13841 5.3333 3.8474 5.4494 3.709 0.11608 0.95524-3.5182 4.2333-5.1883 3.2781-1.67 4.9077 2.5444 6.8766-0.46426 1.9688-3.0086-2.7172-2.542-2.5852-6.0831 0.13209-3.5411 4.7693-2.789 3.0292-5.9137s-3.6725 0.97619-6.8185-0.89486c-3.146-1.8711-0.13841-5.3333-3.8474-5.4494-0.46362-0.01445-0.83232 0.01158-1.1187 0.10311zm0.03795 9.0158c1.6544-0.33783 3.2806 0.67675 3.6323 2.2661 0.35166 1.5894-0.70443 3.1517-2.3588 3.4895-1.6544 0.33783-3.2806-0.67675-3.6323-2.2661-0.35165-1.5894 0.70443-3.1517 2.3588-3.4895z" fill="#888"/>
 <path d="m8.5 6c-0.6667 0-1.2652 0.3277-1.7188 0.7812-0.4535 0.4536-0.7812 1.0521-0.7812 1.7188v31.062c0 0.649 0.3063 1.244 0.75 1.688s1.0388 0.75 1.6875 0.75h31.125c0.649 0 1.244-0.306 1.688-0.75s0.75-1.039 0.75-1.688v-31.124c0-0.6492-0.306-1.2443-0.75-1.688s-1.039-0.75-1.688-0.75h-31.062zm0 1h31.062c0.29575 0 0.6763 0.1763 0.96875 0.46875 0.293 0.2924 0.469 0.6729 0.469 0.9687v31.125c0 0.29575-0.1763 0.6763-0.46875 0.96875-0.292 0.293-0.673 0.469-0.969 0.469h-31.124c-0.2963 0-0.6768-0.176-0.9692-0.469-0.2925-0.292-0.4688-0.673-0.4688-0.969v-31.062c0-0.3333 0.1723-0.7348 0.4688-1.0312 0.2964-0.2965 0.6979-0.4688 1.0312-0.4688z" fill="#aaa"/>
</svg>
