<?xml version="1.0" encoding="UTF-8" standalone="no"?>
<!-- Created with Inkscape (http://www.inkscape.org/) -->

<svg
   xmlns:dc="http://purl.org/dc/elements/1.1/"
   xmlns:cc="http://creativecommons.org/ns#"
   xmlns:rdf="http://www.w3.org/1999/02/22-rdf-syntax-ns#"
   xmlns:svg="http://www.w3.org/2000/svg"
   xmlns="http://www.w3.org/2000/svg"
   xmlns:sodipodi="http://sodipodi.sourceforge.net/DTD/sodipodi-0.dtd"
   xmlns:inkscape="http://www.inkscape.org/namespaces/inkscape"
   width="48"
   height="48"
   id="svg2"
   version="1.1"
   inkscape:version="0.48.3.1 r9886"
   sodipodi:docname="accessories-calculator.svg">
  <defs
     id="defs4" />
  <sodipodi:namedview
     id="base"
     pagecolor="#c6c6c6"
     bordercolor="#666666"
     borderopacity="1.0"
     inkscape:pageopacity="1"
     inkscape:pageshadow="2"
     inkscape:zoom="8.3691827"
     inkscape:cx="10.391889"
     inkscape:cy="29.484947"
     inkscape:document-units="px"
     inkscape:current-layer="layer1"
     showgrid="false"
     inkscape:window-width="1598"
     inkscape:window-height="879"
     inkscape:window-x="0"
     inkscape:window-y="0"
     inkscape:window-maximized="1"
     inkscape:snap-page="true"
     inkscape:snap-to-guides="false">
    <sodipodi:guide
       position="9,39.000017"
       orientation="30,0"
       id="guide3288" />
    <sodipodi:guide
       position="39,9.0000174"
       orientation="-30,0"
       id="guide3292" />
    <sodipodi:guide
       position="39,39.000017"
       orientation="0,-30"
       id="guide3294" />
    <sodipodi:guide
       position="7,42.000078"
       orientation="35.999939,0"
       id="guide3316" />
    <sodipodi:guide
       position="7,6.0001395"
       orientation="0,34"
       id="guide3318" />
    <sodipodi:guide
       position="41,6.0001395"
       orientation="-35.999939,0"
       id="guide3320" />
    <sodipodi:guide
       position="41,42.000078"
       orientation="0,-34"
       id="guide3322" />
  </sodipodi:namedview>
  <metadata
     id="metadata7">
    <rdf:RDF>
      <cc:Work
         rdf:about="">
        <dc:format>image/svg+xml</dc:format>
        <dc:type
           rdf:resource="http://purl.org/dc/dcmitype/StillImage" />
        <dc:title />
      </cc:Work>
    </rdf:RDF>
  </metadata>
  <g
     inkscape:label="Capa 1"
     inkscape:groupmode="layer"
     id="layer1"
     transform="translate(0,-1004.3622)">
    <rect
       style="fill:#ffffff;fill-opacity:1;stroke:none"
       id="rect3793"
       width="48"
       height="48"
       x="0"
       y="0"
       transform="translate(0,1004.3622)"
       ry="4.0625234" />
    <rect
       style="fill:#262729;fill-opacity:1;stroke:none"
       id="rect4034"
       width="40"
       height="40"
       x="4"
       y="1008.3621" />
    <rect
       y="1010.3621"
       x="7"
       height="35.999969"
       width="34"
       id="rect3310"
       style="fill:none;fill-opacity:1;fill-rule:evenodd;stroke:none" />
    <rect
       style="fill:none;fill-opacity:1;fill-rule:evenodd;stroke:none"
       id="rect3304"
       width="30"
       height="30"
       x="9"
       y="1013.3622" />
    <rect
       y="1011.8622"
       x="8"
       height="10"
       width="32"
       id="rect4036"
       style="fill:#c0c0c0;fill-opacity:1;stroke:none" />
    <path
       style="fill:#e04613;fill-opacity:1;stroke:none"
       d="m 30,1025.3622 0,8.9752 0,2.0495 0,8.9753 10,0 0,-8.9753 0,-2.0495 0,-8.9752 -10,0 z"
       id="rect4056"
       inkscape:connector-curvature="0" />
    <rect
       style="fill:#6c9eab;fill-opacity:1;stroke:none"
       id="rect3330"
       width="9"
       height="9"
       x="8"
       y="1025.3622" />
    <rect
       y="1036.3622"
       x="8"
       height="9"
       width="9"
       id="rect3324"
       style="fill:#6c9eab;fill-opacity:1;stroke:none" />
    <rect
       style="fill:#6c9eab;fill-opacity:1;stroke:none"
       id="rect3328"
       width="9"
       height="9"
       x="19"
       y="1036.3622" />
    <g
       style="font-size:24.8214283px;font-style:normal;font-variant:normal;font-weight:500;font-stretch:normal;text-align:start;line-height:125%;letter-spacing:0px;word-spacing:0px;writing-mode:lr-tb;text-anchor:start;fill:#262729;fill-opacity:1;stroke:none;font-family:Helvetica 65 Medium;-inkscape-font-specification:'Helvetica 65 Medium, Medium'"
       id="text4056"
       transform="matrix(1.0027894,0,0,1.0027217,-1.5495805,-2.0179592)">
      <path
         d="m 36.558936,1018.8294 0,-5.4297 -1.551339,0 0,5.4297 1.551339,0 z m -2.327009,0.7757 0,-0.7757 -0.77567,0 0,-5.4297 0.77567,0 0,-0.7756 3.102679,0 0,0.7756 0.775669,0 0,5.4297 -0.775669,0 0,0.7757 -3.102679,0 z"
         style="font-weight:normal;fill:#262729;fill-opacity:1;font-family:Game Over;-inkscape-font-specification:Game Over"
         id="path4061"
         inkscape:connector-curvature="0" />
    </g>
    <ellipse
       ry="2.0000615"
       rx="2"
       cy="1028.3622"
       cx="46"
       id="ellipse3280"
       style="fill:none;stroke:none"
       d="m 48,1028.3622 c 0,1.1046 -0.895431,2 -2,2 -1.104569,0 -2,-0.8954 -2,-2 0,-1.1046 0.895431,-2.0001 2,-2.0001 1.104569,0 2,0.8955 2,2.0001 z" />
    <ellipse
       ry="2.0000615"
       rx="2"
       cy="24"
       cx="-1050.3622"
       id="ellipse3282"
       style="fill:none;stroke:none"
       transform="matrix(0,-1,1,0,0,0)"
       d="m -1048.3622,24 c 0,1.104603 -0.8954,2.000062 -2,2.000062 -1.1046,0 -2,-0.895459 -2,-2.000062 0,-1.104603 0.8954,-2.000062 2,-2.000062 1.1046,0 2,0.895459 2,2.000062 z" />
    <ellipse
       style="fill:none;stroke:none"
       id="ellipse3284"
       cx="-1006.3622"
       cy="24"
       rx="2"
       ry="2.0000615"
       transform="matrix(0,-1,1,0,0,0)"
       d="m -1004.3622,24 c 0,1.104603 -0.8954,2.000062 -2,2.000062 -1.1046,0 -2,-0.895459 -2,-2.000062 0,-1.104603 0.8954,-2.000062 2,-2.000062 1.1046,0 2,0.895459 2,2.000062 z" />
    <ellipse
       style="fill:none;stroke:none"
       id="ellipse3296"
       cx="2"
       cy="1028.3622"
       rx="2"
       ry="2.0000615"
       d="m 4,1028.3622 c 0,1.1046 -0.8954305,2 -2,2 -1.1045695,0 -2,-0.8954 -2,-2 0,-1.1046 0.8954305,-2.0001 2,-2.0001 1.1045695,0 2,0.8955 2,2.0001 z" />
    <ellipse
       transform="matrix(0,-1,1,0,0,0)"
       ry="1.0000308"
       rx="1"
       cy="24"
       cx="-1009.3622"
       id="ellipse3298"
       style="fill:none;stroke:none"
       d="m -1008.3622,24 c 0,0.552302 -0.4477,1.000031 -1,1.000031 -0.5523,0 -1,-0.447729 -1,-1.000031 0,-0.552302 0.4477,-1.000031 1,-1.000031 0.5523,0 1,0.447729 1,1.000031 z" />
    <ellipse
       style="fill:none;stroke:none"
       id="ellipse3300"
       cx="-1015.8628"
       cy="40"
       rx="1.0006928"
       ry="1.0000308"
       transform="matrix(0,-1,1,0,0,0)"
       d="m -1014.8621,40 c 0,0.552302 -0.448,1.000031 -1.0007,1.000031 -0.5527,0 -1.0007,-0.447729 -1.0007,-1.000031 0,-0.552302 0.448,-1.000031 1.0007,-1.000031 0.5527,0 1.0007,0.447729 1.0007,1.000031 z" />
    <ellipse
       style="fill:none;stroke:none"
       id="ellipse3302"
       cx="-1011.3622"
       cy="24"
       rx="1"
       ry="1.0000308"
       transform="matrix(0,-1,1,0,0,0)"
       d="m -1010.3622,24 c 0,0.552302 -0.4477,1.000031 -1,1.000031 -0.5523,0 -1,-0.447729 -1,-1.000031 0,-0.552302 0.4477,-1.000031 1,-1.000031 0.5523,0 1,0.447729 1,1.000031 z" />
    <ellipse
       transform="matrix(0,-1,1,0,0,0)"
       ry="1.0000308"
       rx="1.0006928"
       cy="8"
       cx="-1015.8628"
       id="ellipse3308"
       style="fill:none;stroke:none"
       d="m -1014.8621,8 c 0,0.5523017 -0.448,1.0000308 -1.0007,1.0000308 -0.5527,0 -1.0007,-0.4477291 -1.0007,-1.0000308 0,-0.5523017 0.448,-1.0000308 1.0007,-1.0000308 0.5527,0 1.0007,0.4477291 1.0007,1.0000308 z" />
    <ellipse
       style="fill:none;stroke:none"
       id="ellipse3312"
       cx="-1047.3622"
       cy="24"
       rx="1.0000005"
       ry="1.0000308"
       transform="matrix(0,-1,1,0,0,0)"
       d="m -1046.3622,24 c 0,0.552302 -0.4477,1.000031 -1,1.000031 -0.5523,0 -1,-0.447729 -1,-1.000031 0,-0.552302 0.4477,-1.000031 1,-1.000031 0.5523,0 1,0.447729 1,1.000031 z" />
    <ellipse
       transform="matrix(0,-1,1,0,0,0)"
       ry="1.0000308"
       rx="1.0006928"
       cy="17"
       cx="-1041.8628"
       id="ellipse3326"
       style="fill:none;stroke:none"
       d="m -1040.8621,17 c 0,0.552302 -0.448,1.000031 -1.0007,1.000031 -0.5527,0 -1.0007,-0.447729 -1.0007,-1.000031 0,-0.552302 0.448,-1.000031 1.0007,-1.000031 0.5527,0 1.0007,0.447729 1.0007,1.000031 z" />
    <ellipse
       style="fill:none;stroke:none"
       id="ellipse3332"
       cx="-1022.3628"
       cy="8"
       rx="1.0006928"
       ry="1.0000308"
       transform="matrix(0,-1,1,0,0,0)"
       d="m -1021.3621,8 c 0,0.5523017 -0.448,1.0000308 -1.0007,1.0000308 -0.5527,0 -1.0007,-0.4477291 -1.0007,-1.0000308 0,-0.5523017 0.448,-1.0000308 1.0007,-1.0000308 0.5527,0 1.0007,0.4477291 1.0007,1.0000308 z" />
    <rect
       y="1027.8622"
       x="12"
       height="4"
       width="1"
       id="rect3334"
       style="fill:#ffffff;fill-opacity:1;stroke:none" />
    <ellipse
       transform="matrix(0,-1,1,0,0,0)"
       ry="1.0000308"
       rx="1.0006928"
       cy="17"
       cx="-1027.8628"
       id="ellipse3336"
       style="fill:none;stroke:none"
       d="m -1026.8621,17 c 0,0.552302 -0.448,1.000031 -1.0007,1.000031 -0.5527,0 -1.0007,-0.447729 -1.0007,-1.000031 0,-0.552302 0.448,-1.000031 1.0007,-1.000031 0.5527,0 1.0007,0.447729 1.0007,1.000031 z" />
    <rect
       y="1025.3622"
       x="19"
       height="9"
       width="9"
       id="rect3338"
       style="fill:#6c9eab;fill-opacity:1;stroke:none" />
    <rect
       style="fill:#ffffff;fill-opacity:1;stroke:none"
       id="rect3342"
       width="1"
       height="4"
       x="1029.3622"
       y="-14.5"
       transform="matrix(0,1,-1,0,0,0)" />
    <rect
       transform="matrix(0,1,-1,0,0,0)"
       y="-25.5"
       x="1029.3622"
       height="4"
       width="1"
       id="rect3344"
       style="fill:#ffffff;fill-opacity:1;stroke:none" />
    <rect
       transform="matrix(0,1,-1,0,0,0)"
       y="-14.5"
       x="1040.3622"
       height="4"
       width="1"
       id="rect3346"
       style="fill:#ffffff;fill-opacity:1;stroke:none" />
    <ellipse
       style="fill:#ffffff;stroke:none"
       id="ellipse3348"
       cx="-1043.3624"
       cy="11.5"
       rx="0.50034642"
       ry="0.50001538"
       transform="matrix(0,-1,1,0,1,-0.99980842)"
       d="m -1042.8621,11.5 c 0,0.276151 -0.224,0.500015 -0.5003,0.500015 -0.2764,0 -0.5004,-0.223864 -0.5004,-0.500015 0,-0.276151 0.224,-0.500015 0.5004,-0.500015 0.2763,0 0.5003,0.223864 0.5003,0.500015 z"
       sodipodi:cx="-1043.3624"
       sodipodi:cy="11.5"
       sodipodi:rx="0.50034642"
       sodipodi:ry="0.50001538" />
    <ellipse
       transform="matrix(0,-1,1,0,1,-0.99980842)"
       ry="0.50001538"
       rx="0.50034642"
       cy="11.5"
       cx="-1040.3624"
       id="ellipse3354"
       style="fill:#ffffff;stroke:none"
       d="m -1039.8621,11.5 c 0,0.276151 -0.224,0.500015 -0.5003,0.500015 -0.2764,0 -0.5004,-0.223864 -0.5004,-0.500015 0,-0.276151 0.224,-0.500015 0.5004,-0.500015 0.2763,0 0.5003,0.223864 0.5003,0.500015 z"
       sodipodi:cx="-1040.3624"
       sodipodi:cy="11.5"
       sodipodi:rx="0.50034642"
       sodipodi:ry="0.50001538" />
    <ellipse
       transform="matrix(0,-1,1,0,0,0)"
       ry="1.0000308"
       rx="1.0006928"
       cy="40"
       cx="-1022.3628"
       id="ellipse3356"
       style="fill:none;stroke:none"
       d="m -1021.3621,40 c 0,0.552302 -0.448,1.000031 -1.0007,1.000031 -0.5527,0 -1.0007,-0.447729 -1.0007,-1.000031 0,-0.552302 0.448,-1.000031 1.0007,-1.000031 0.5527,0 1.0007,0.447729 1.0007,1.000031 z" />
    <rect
       style="fill:#ffffff;fill-opacity:1;stroke:none"
       id="rect3358"
       width="1"
       height="4"
       x="1035.3622"
       y="-37"
       transform="matrix(0,1,-1,0,0,0)" />
    <ellipse
       style="fill:none;stroke:none"
       id="ellipse3360"
       cx="-1034.8628"
       cy="35.5"
       rx="1.0006928"
       ry="1.0000308"
       transform="matrix(0,-1,1,0,0,0)"
       d="m -1033.8621,35.5 c 0,0.552302 -0.448,1.000031 -1.0007,1.000031 -0.5527,0 -1.0007,-0.447729 -1.0007,-1.000031 0,-0.552302 0.448,-1.000031 1.0007,-1.000031 0.5527,0 1.0007,0.447729 1.0007,1.000031 z" />
    <rect
       style="fill:#ffffff;fill-opacity:1;stroke:none"
       id="rect3362"
       width="1"
       height="4"
       x="1033.3622"
       y="-37"
       transform="matrix(0,1,-1,0,0,0)" />
    <rect
       y="1039.8621"
       x="20.5"
       height="4"
       width="4"
       id="rect3376"
       style="fill:none;fill-opacity:1;stroke:none" />
    <rect
       style="fill:#ffffff;fill-opacity:1;stroke:none"
       id="rect3372"
       width="0.99998713"
       height="4.65694"
       x="-719.87408"
       y="750.27991"
       transform="matrix(0.70709767,-0.70711589,0.70709767,0.70711589,0,0)" />
    <rect
       transform="matrix(0.70710678,0.70710678,0.70710678,-0.70710678,0,0)"
       y="-721.71228"
       x="752.11774"
       height="4.6570001"
       width="1"
       id="rect3378"
       style="fill:#ffffff;fill-opacity:1;stroke:none" />
  </g>
</svg>
