<svg id="Layer_1" data-name="Layer 1" xmlns="http://www.w3.org/2000/svg" viewBox="0 0 121.83 122.88"><defs><style>.cls-1{fill:#59f318;}</style></defs><title>razer-laptop</title><path class="cls-1" d="M79.63,57.34C76.85,56.48,76,54.89,76,54.47a1.12,1.12,0,0,1,.81-.64c1.82-.31,5.23,2.22,7.5,4.11a14.38,14.38,0,0,1-4.67-.6Zm-10.15-10a1.12,1.12,0,0,1-1-.28c-1.32-1.3-1.24-5.55-1-8.49a14.32,14.32,0,0,1,2.23,4.14c.92,2.77.13,4.37-.22,4.63ZM66.55,58.13c-.64,1.74-4.53,3.44-7.29,4.47a14.35,14.35,0,0,1,2.83-3.75c2.14-2,3.93-1.94,4.3-1.74a1.13,1.13,0,0,1,.16,1ZM120.91,2.36A2,2,0,0,0,117.47.65l-1.06,1.17-1.69.73a3.61,3.61,0,0,0-2,0,1.51,1.51,0,0,1-.87,0,5.24,5.24,0,0,0-2.88.17,5,5,0,0,0-1.84.32A4.75,4.75,0,0,0,105,4.79l-.16.21c-3,.77-4.21,2.47-4.67,3.79a5.46,5.46,0,0,0-.2.77A10.08,10.08,0,0,0,88.68,9.1a10.42,10.42,0,0,0-4.85,12c2.12,7.77,9.5,15.1,13.9,19.47L99.16,42c2.3,2.34,5.27,7.06,4.68,10.22a3.73,3.73,0,0,1-2.49,2.8,9.49,9.49,0,0,1-2.82.82c1.62-4.56.84-9.46-2.25-12.68-4.41-4.57-8.57-3.43-10.17-2.19a2,2,0,0,0,1.24,3.57,6.7,6.7,0,0,1,5.53,3.67,5.48,5.48,0,0,1-.48,5.56,26.56,26.56,0,0,1-2.33-2.23c-.27-.28-.52-.55-.75-.77l-.16-.18C86,47.05,82.77,45,79.54,44.4,79.13,38.7,75.1,32.92,69,29.57a13.64,13.64,0,0,0-1.54-.74A14.1,14.1,0,0,0,56.84,17.24c-8.49-2.4-15.23,1.4-18.49,10.4C37.23,30.71,34.87,41.18,32.92,50l-.36,1.65a6.06,6.06,0,0,1-3.06,3.74A1.48,1.48,0,0,1,27.91,55c-1.42-1.15-.58-4.48-.13-6.26.09-.35.16-.65.22-.92a5.62,5.62,0,0,0-1.46-5,5.28,5.28,0,0,0-4.71-1.66,6.65,6.65,0,0,0-5.35,4.91A4.78,4.78,0,0,0,14.69,44,4.85,4.85,0,0,0,13,43.31a5.24,5.24,0,0,0-2.81-.74,1.49,1.49,0,0,1-.85-.18,3.54,3.54,0,0,0-2.21-.32l-1.37-.88-.88-1.32A2,2,0,0,0,1.19,41,2,2,0,0,0,0,42.79a2,2,0,0,0,1.72,2L3.29,45l1.35.86a3.61,3.61,0,0,0,1.2,1.84,1.57,1.57,0,0,1,.51.71A5.15,5.15,0,0,0,8.17,50.7,4.87,4.87,0,0,0,9.49,52a4.73,4.73,0,0,0,2.73.74h.26c2.39,2,4.46,2,5.81,1.59a4.59,4.59,0,0,0,.73-.28,10.08,10.08,0,0,0,6.19,9.42,10.4,10.4,0,0,0,12.6-3c5.09-6.25,6.75-16.51,7.74-22.64l.33-2c.57-3.23,2.68-8.39,5.58-9.75a3.72,3.72,0,0,1,3.73.4,9.15,9.15,0,0,1,2.31,1.81c-4.65,1.33-8.18,4.83-9,9.21-1.16,6.25,2.19,9,4.13,9.54a2,2,0,0,0,2.19-3.08,6.7,6.7,0,0,1-.25-6.63,5.51,5.51,0,0,1,4.81-2.86,26.81,26.81,0,0,1-.45,3.2c-.08.38-.15.75-.2,1.06,0,0,0,.15-.05.24-1,4.23-.89,7.79.2,10.63-4.69,2.9-8,8.81-8.49,15.42a13.94,13.94,0,0,0,0,1.71,14.13,14.13,0,0,0-6.12,14.48c1.36,8.71,7.61,13.26,17.16,12.48,3.26-.27,13.76-2.48,22.56-4.37l1.64-.35a6.07,6.07,0,0,1,4.68,1.21,1.52,1.52,0,0,1,.34,1.6c-.46,1.77-3.83,2.39-5.65,2.73l-.92.18A5.63,5.63,0,0,0,80.17,98a5.28,5.28,0,0,0,.44,5,6.63,6.63,0,0,0,6.7,2.82,4.87,4.87,0,0,0-1.18,2.52,5,5,0,0,0,.1,1.84,5.25,5.25,0,0,0,.49,2.86,1.58,1.58,0,0,1,.2.85,3.49,3.49,0,0,0,.67,2.2l-.3,2.05-.85,1.34A2,2,0,0,0,89,122.37a2,2,0,0,0,3.25-2l-.44-1.53.32-2.18a3.58,3.58,0,0,0,1.12-1.8,1.55,1.55,0,0,1,.43-.76A5.2,5.2,0,0,0,95,111.47a4.88,4.88,0,0,0,.63-1.74,4.81,4.81,0,0,0-.46-2.79l-.1-.24c.83-3,0-4.88-1-5.94a7.4,7.4,0,0,0-.56-.56,10.08,10.08,0,0,0,6-9.54,10.44,10.44,0,0,0-8-10.19c-7.81-2-17.83.75-23.81,2.4l-2,.53c-3.18.83-8.75,1.07-11.19-1a3.7,3.7,0,0,1-1.19-3.55A9.38,9.38,0,0,1,54,76c3.15,3.67,7.8,5.42,12.12,4.34,6.16-1.55,7.24-5.74,7-7.73a2,2,0,0,0-3.71-.71,6.71,6.71,0,0,1-5.93,3,5.5,5.5,0,0,1-4.59-3.18,24.85,24.85,0,0,1,3.09-.92c.38-.1.74-.18,1-.27l.24,0c4.83-1,8.3-2.86,10.37-5.51,4.83,2.45,11.34,2.31,17.21-.5a16.81,16.81,0,0,0,1.49-.82,14.13,14.13,0,0,0,15.61-1.88c6.88-5.51,7.72-13.19,2.3-21.09-1.85-2.7-9-10.72-15-17.41L94.07,22a6.13,6.13,0,0,1-1.27-4.67A1.5,1.5,0,0,1,94,16.24c1.75-.48,4,2.13,5.16,3.54l.62.71a5.65,5.65,0,0,0,4.87,1.7,5.31,5.31,0,0,0,4.1-2.86,6.64,6.64,0,0,0-.88-7.21,4.77,4.77,0,0,0,4.32-1.23A5.14,5.14,0,0,0,114.45,9a1.54,1.54,0,0,1,.65-.58,3.5,3.5,0,0,0,1.64-1.83L118.21,6l1.58,0a2,2,0,0,0,2-1.76,2,2,0,0,0-.9-1.91Z"/><path d="M79,59.25C74.88,58,73.4,55,74.2,53.57c2.69-4.83,9.94,1.53,13.14,4.34.4.36.89.78,1.45,1.21a15.87,15.87,0,0,1-9.75.13Zm-21.27,6c-.52.18-1.12.39-1.77.66a15.94,15.94,0,0,1,4.73-8.52c3.19-3,6.47-2.8,7.33-1.38,2.86,4.73-6.27,7.86-10.29,9.24Zm7.91-29.09c.06-.54.11-1.18.14-1.88a15.85,15.85,0,0,1,5.78,7.85c1.37,4.14-.15,7-1.81,7.24-5.49.63-4.53-9-4.11-13.21ZM119.82,4,118,3.64,119,2l-1.36,1.49-3,1.27a1.34,1.34,0,0,0-1.39-.3c-1.81.45-1.86-.52-3.87.21-.41.16-.27-.19-1.57.23-.91.3-1.52,1.81-2.12,1.94-5.83,1.25-3.52,6.22-2.71,7.21,1,1.22.17,1.64-.28,1.2-.69-.69-1.54-1.82-3.19-3.44-5.63-5.55-16.11.09-13.74,8.79,2.23,8.19,11.12,16.25,14.83,20,3.36,3.42,9.2,12.78,1.59,16.23a9.89,9.89,0,0,1-6.7.79c2.65-4.33,2.5-9.81-.64-13.07-4.32-4.49-7.49-2-7.49-2,5,0,11.34,6.36,6.14,13.18a10.16,10.16,0,0,1-.67.78A25.08,25.08,0,0,1,87.9,52.2c-.48-.48-4.88-6.09-10.36-6C78,40.41,73.81,34.49,68,31.31a13.73,13.73,0,0,0-2.37-1C65.1,25.94,63,21,56.3,19.15c-10.14-2.85-14.46,4.71-16.07,9.17-1.39,3.82-5.1,21-5.72,23.73s-4.31,7.38-7.86,4.49c-2.74-2.24-1-7.23-.6-9.15a3.59,3.59,0,0,0-3.92-4.22c-3,.46-3.6,3.24-3.95,4.14-.73,1.89-2.45,1-2.79.73-.52-.33-.87-1.85-1.69-2.32-1.19-.68-1.12-.31-1.5-.54-1.82-1.12-2.06-.19-3.75-1a1.42,1.42,0,0,0-1.24-.08,2.61,2.61,0,0,0-.27.22L4.29,42.65,3.19,41l.68,1.71L2,42.84l2,.28,2.62,1.66a1.31,1.31,0,0,0,.53,1.45c1.41,1.21.66,1.81,2.43,3,.36.24,0,.33,1.1,1.14.77.56,2.35.18,2.81.59,4.41,4,7.11-.76,7.44-2,.41-1.52,1.24-1.09,1.14-.47-.17,1-.59,2.32-.95,4.59-1.24,7.82,9.46,13,15.15,6.06,5.36-6.58,6.74-18.5,7.65-23.72.83-4.72,5-14.92,12.28-10.74a10,10,0,0,1,4.54,5c-5.07.36-9.44,3.68-10.26,8.13C49.34,44,53.2,45.08,53.2,45.08,50.27,41,51.77,32.16,60.34,32.42a8.76,8.76,0,0,1,1,.09A25.08,25.08,0,0,1,60.71,39c-.1.64-2,7,.84,11.4-5.25,2.16-8.7,8.3-9.16,14.7a12.9,12.9,0,0,0,.06,2.57C48.72,70,45.15,74,46.22,80.86c1.63,10.41,10.3,11.19,15,10.8,4-.33,21.17-4.1,24-4.69s8.51.84,7.36,5.28c-.89,3.42-6.15,3.93-8.07,4.35a3.59,3.59,0,0,0-2.2,5.32c1.68,2.57,4.45,1.93,5.41,1.87,2-.12,1.89,1.83,1.82,2.23-.09.62-1.32,1.56-1.4,2.51-.12,1.36.18,1.14.13,1.58-.26,2.12.69,2,.66,3.82a1.44,1.44,0,0,0,.43,1.14h0l.08.08.07,0h0l.23.11-.51,3.56-1.09,1.7,1.28-1.32.92,1.64L89.76,119l.52-3.6a1.32,1.32,0,0,0,1-1.07c.51-1.79,1.37-1.36,1.73-3.47.08-.43.31-.14.58-1.48.2-.93-.81-2.21-.63-2.8,1.81-5.68-3.65-6.14-4.9-5.93-1.56.26-1.52-.67-.91-.84.94-.25,2.35-.43,4.57-1.05,7.62-2.14,7.92-14-.8-16.3C82.73,80.28,71.32,84,66.19,85.34,61.55,86.55,50.53,87,51.32,78.65A9.89,9.89,0,0,1,54,72.45c2.44,4.45,7.27,7,11.66,5.93,6-1.52,5.46-5.5,5.46-5.5-2.49,4.36-11.15,6.68-14.48-1.22a10.13,10.13,0,0,1-.35-1,24.75,24.75,0,0,1,6.2-2.11c.67-.19,8-1.27,10.48-6.35,4.49,3.24,11.33,3.13,17,.42a13.68,13.68,0,0,0,2.2-1.33c3.87,2.07,9.12,3.19,14.52-1.13,8.22-6.58,4.59-14.49,1.91-18.41-2.3-3.34-14.07-16.34-16-18.46s-3.5-7.8.93-9c3.41-.93,6.47,3.38,7.79,4.84a3.59,3.59,0,0,0,5.71-.73c1.4-2.74-.54-4.82-1.07-5.63-1.11-1.7.65-2.54,1-2.69.58-.23,2,.37,2.87,0,1.25-.57.91-.73,1.31-.91,2-.82,1.36-1.57,3-2.47a1.48,1.48,0,0,0,.76-.84V5.81a1,1,0,0,0,0-.56L117.81,4l2,0Z"/><path class="cls-1" d="M95.14,120.93v-1.3h.57l.21.88h0l.21-.88h.56v1.3h-.32v-1.09h0l-.3,1.09h-.33l-.28-1.1h0v1.1Zm-.92,0h.38v-1.1H95v-.27H93.8v.27h.42V121Z"/></svg>